G04 #@! TF.FileFunction,Legend,Top*
%FSLAX46Y46*%
G04 Gerber Fmt 4.6, Leading zero omitted, Abs format (unit mm)*
G04 Created by KiCad (PCBNEW 4.0.7-e2-6376~58~ubuntu16.04.1) date Fri Jun  1 10:41:47 2018*
%MOMM*%
%LPD*%
G01*
G04 APERTURE LIST*
%ADD10C,0.100000*%
%ADD11C,0.190500*%
%ADD12C,0.120000*%
%ADD13C,0.150000*%
%ADD14C,0.254000*%
%ADD15C,0.050000*%
G04 APERTURE END LIST*
D10*
D11*
X115763524Y-50028929D02*
X115908667Y-50077310D01*
X115957048Y-50125690D01*
X116005429Y-50222452D01*
X116005429Y-50367595D01*
X115957048Y-50464357D01*
X115908667Y-50512738D01*
X115811905Y-50561119D01*
X115424858Y-50561119D01*
X115424858Y-49545119D01*
X115763524Y-49545119D01*
X115860286Y-49593500D01*
X115908667Y-49641881D01*
X115957048Y-49738643D01*
X115957048Y-49835405D01*
X115908667Y-49932167D01*
X115860286Y-49980548D01*
X115763524Y-50028929D01*
X115424858Y-50028929D01*
X116779524Y-50028929D02*
X116924667Y-50077310D01*
X116973048Y-50125690D01*
X117021429Y-50222452D01*
X117021429Y-50367595D01*
X116973048Y-50464357D01*
X116924667Y-50512738D01*
X116827905Y-50561119D01*
X116440858Y-50561119D01*
X116440858Y-49545119D01*
X116779524Y-49545119D01*
X116876286Y-49593500D01*
X116924667Y-49641881D01*
X116973048Y-49738643D01*
X116973048Y-49835405D01*
X116924667Y-49932167D01*
X116876286Y-49980548D01*
X116779524Y-50028929D01*
X116440858Y-50028929D01*
X117795524Y-50028929D02*
X117940667Y-50077310D01*
X117989048Y-50125690D01*
X118037429Y-50222452D01*
X118037429Y-50367595D01*
X117989048Y-50464357D01*
X117940667Y-50512738D01*
X117843905Y-50561119D01*
X117456858Y-50561119D01*
X117456858Y-49545119D01*
X117795524Y-49545119D01*
X117892286Y-49593500D01*
X117940667Y-49641881D01*
X117989048Y-49738643D01*
X117989048Y-49835405D01*
X117940667Y-49932167D01*
X117892286Y-49980548D01*
X117795524Y-50028929D01*
X117456858Y-50028929D01*
X119246953Y-50561119D02*
X119246953Y-49545119D01*
X119730763Y-50561119D02*
X119730763Y-49545119D01*
X120311334Y-50561119D01*
X120311334Y-49545119D01*
X120795144Y-50561119D02*
X120795144Y-49545119D01*
X121037049Y-49545119D01*
X121182191Y-49593500D01*
X121278953Y-49690262D01*
X121327334Y-49787024D01*
X121375715Y-49980548D01*
X121375715Y-50125690D01*
X121327334Y-50319214D01*
X121278953Y-50415976D01*
X121182191Y-50512738D01*
X121037049Y-50561119D01*
X120795144Y-50561119D01*
X121811144Y-50028929D02*
X122149810Y-50028929D01*
X122294953Y-50561119D02*
X121811144Y-50561119D01*
X121811144Y-49545119D01*
X122294953Y-49545119D01*
X122633620Y-49545119D02*
X123310953Y-50561119D01*
X123310953Y-49545119D02*
X122633620Y-50561119D01*
X123698001Y-50028929D02*
X124036667Y-50028929D01*
X124181810Y-50561119D02*
X123698001Y-50561119D01*
X123698001Y-49545119D01*
X124181810Y-49545119D01*
X125197810Y-50561119D02*
X124859144Y-50077310D01*
X124617239Y-50561119D02*
X124617239Y-49545119D01*
X125004286Y-49545119D01*
X125101048Y-49593500D01*
X125149429Y-49641881D01*
X125197810Y-49738643D01*
X125197810Y-49883786D01*
X125149429Y-49980548D01*
X125101048Y-50028929D01*
X125004286Y-50077310D01*
X124617239Y-50077310D01*
X126987905Y-50561119D02*
X126649239Y-50077310D01*
X126407334Y-50561119D02*
X126407334Y-49545119D01*
X126794381Y-49545119D01*
X126891143Y-49593500D01*
X126939524Y-49641881D01*
X126987905Y-49738643D01*
X126987905Y-49883786D01*
X126939524Y-49980548D01*
X126891143Y-50028929D01*
X126794381Y-50077310D01*
X126407334Y-50077310D01*
X127955524Y-50561119D02*
X127374953Y-50561119D01*
X127665239Y-50561119D02*
X127665239Y-49545119D01*
X127568477Y-49690262D01*
X127471715Y-49787024D01*
X127374953Y-49835405D01*
X115884476Y-51259619D02*
X115884476Y-51985333D01*
X115836096Y-52130476D01*
X115739334Y-52227238D01*
X115594191Y-52275619D01*
X115497429Y-52275619D01*
X116561810Y-51259619D02*
X116755333Y-51259619D01*
X116852095Y-51308000D01*
X116948857Y-51404762D01*
X116997238Y-51598286D01*
X116997238Y-51936952D01*
X116948857Y-52130476D01*
X116852095Y-52227238D01*
X116755333Y-52275619D01*
X116561810Y-52275619D01*
X116465048Y-52227238D01*
X116368286Y-52130476D01*
X116319905Y-51936952D01*
X116319905Y-51598286D01*
X116368286Y-51404762D01*
X116465048Y-51308000D01*
X116561810Y-51259619D01*
X117432667Y-52275619D02*
X117432667Y-51259619D01*
X117432667Y-51743429D02*
X118013238Y-51743429D01*
X118013238Y-52275619D02*
X118013238Y-51259619D01*
X118497048Y-52275619D02*
X118497048Y-51259619D01*
X119077619Y-52275619D01*
X119077619Y-51259619D01*
X120335524Y-52275619D02*
X120335524Y-51259619D01*
X120674190Y-51985333D01*
X121012857Y-51259619D01*
X121012857Y-52275619D01*
X122077238Y-52178857D02*
X122028857Y-52227238D01*
X121883714Y-52275619D01*
X121786952Y-52275619D01*
X121641810Y-52227238D01*
X121545048Y-52130476D01*
X121496667Y-52033714D01*
X121448286Y-51840190D01*
X121448286Y-51695048D01*
X121496667Y-51501524D01*
X121545048Y-51404762D01*
X121641810Y-51308000D01*
X121786952Y-51259619D01*
X121883714Y-51259619D01*
X122028857Y-51308000D01*
X122077238Y-51356381D01*
X122512667Y-52275619D02*
X122512667Y-51259619D01*
X122851333Y-51985333D01*
X123190000Y-51259619D01*
X123190000Y-52275619D01*
X123625429Y-51985333D02*
X124109238Y-51985333D01*
X123528667Y-52275619D02*
X123867334Y-51259619D01*
X124206000Y-52275619D01*
X124496286Y-52227238D02*
X124641429Y-52275619D01*
X124883333Y-52275619D01*
X124980095Y-52227238D01*
X125028476Y-52178857D01*
X125076857Y-52082095D01*
X125076857Y-51985333D01*
X125028476Y-51888571D01*
X124980095Y-51840190D01*
X124883333Y-51791810D01*
X124689810Y-51743429D01*
X124593048Y-51695048D01*
X124544667Y-51646667D01*
X124496286Y-51549905D01*
X124496286Y-51453143D01*
X124544667Y-51356381D01*
X124593048Y-51308000D01*
X124689810Y-51259619D01*
X124931714Y-51259619D01*
X125076857Y-51308000D01*
X125367143Y-51259619D02*
X125947714Y-51259619D01*
X125657429Y-52275619D02*
X125657429Y-51259619D01*
X126286381Y-51743429D02*
X126625047Y-51743429D01*
X126770190Y-52275619D02*
X126286381Y-52275619D01*
X126286381Y-51259619D01*
X126770190Y-51259619D01*
X127786190Y-52275619D02*
X127447524Y-51791810D01*
X127205619Y-52275619D02*
X127205619Y-51259619D01*
X127592666Y-51259619D01*
X127689428Y-51308000D01*
X127737809Y-51356381D01*
X127786190Y-51453143D01*
X127786190Y-51598286D01*
X127737809Y-51695048D01*
X127689428Y-51743429D01*
X127592666Y-51791810D01*
X127205619Y-51791810D01*
X119924286Y-53070881D02*
X119972667Y-53022500D01*
X120069429Y-52974119D01*
X120311333Y-52974119D01*
X120408095Y-53022500D01*
X120456476Y-53070881D01*
X120504857Y-53167643D01*
X120504857Y-53264405D01*
X120456476Y-53409548D01*
X119875905Y-53990119D01*
X120504857Y-53990119D01*
X121133810Y-52974119D02*
X121230571Y-52974119D01*
X121327333Y-53022500D01*
X121375714Y-53070881D01*
X121424095Y-53167643D01*
X121472476Y-53361167D01*
X121472476Y-53603071D01*
X121424095Y-53796595D01*
X121375714Y-53893357D01*
X121327333Y-53941738D01*
X121230571Y-53990119D01*
X121133810Y-53990119D01*
X121037048Y-53941738D01*
X120988667Y-53893357D01*
X120940286Y-53796595D01*
X120891905Y-53603071D01*
X120891905Y-53361167D01*
X120940286Y-53167643D01*
X120988667Y-53070881D01*
X121037048Y-53022500D01*
X121133810Y-52974119D01*
X122440095Y-53990119D02*
X121859524Y-53990119D01*
X122149810Y-53990119D02*
X122149810Y-52974119D01*
X122053048Y-53119262D01*
X121956286Y-53216024D01*
X121859524Y-53264405D01*
X123020667Y-53409548D02*
X122923905Y-53361167D01*
X122875524Y-53312786D01*
X122827143Y-53216024D01*
X122827143Y-53167643D01*
X122875524Y-53070881D01*
X122923905Y-53022500D01*
X123020667Y-52974119D01*
X123214190Y-52974119D01*
X123310952Y-53022500D01*
X123359333Y-53070881D01*
X123407714Y-53167643D01*
X123407714Y-53216024D01*
X123359333Y-53312786D01*
X123310952Y-53361167D01*
X123214190Y-53409548D01*
X123020667Y-53409548D01*
X122923905Y-53457929D01*
X122875524Y-53506310D01*
X122827143Y-53603071D01*
X122827143Y-53796595D01*
X122875524Y-53893357D01*
X122923905Y-53941738D01*
X123020667Y-53990119D01*
X123214190Y-53990119D01*
X123310952Y-53941738D01*
X123359333Y-53893357D01*
X123407714Y-53796595D01*
X123407714Y-53603071D01*
X123359333Y-53506310D01*
X123310952Y-53457929D01*
X123214190Y-53409548D01*
D12*
X131512000Y-63560000D02*
X134172000Y-63560000D01*
X131512000Y-60960000D02*
X131512000Y-63560000D01*
X134172000Y-60960000D02*
X134172000Y-63560000D01*
X131512000Y-60960000D02*
X134172000Y-60960000D01*
X131512000Y-59690000D02*
X131512000Y-58360000D01*
X131512000Y-58360000D02*
X132842000Y-58360000D01*
D13*
X168440098Y-119532400D02*
X168440098Y-61112400D01*
X163360098Y-119532400D02*
X163360098Y-63652400D01*
X168440098Y-119532400D02*
X163360098Y-119532400D01*
X168440098Y-61112400D02*
X165900098Y-61112400D01*
X164630098Y-60832400D02*
X163080098Y-60832400D01*
X165900098Y-61112400D02*
X165900098Y-63652400D01*
X165900098Y-63652400D02*
X163360098Y-63652400D01*
X163080098Y-60832400D02*
X163080098Y-62382400D01*
X120180100Y-119532400D02*
X120180100Y-61112400D01*
X115100100Y-119532400D02*
X115100100Y-63652400D01*
X120180100Y-119532400D02*
X115100100Y-119532400D01*
X120180100Y-61112400D02*
X117640100Y-61112400D01*
X116370100Y-60832400D02*
X114820100Y-60832400D01*
X117640100Y-61112400D02*
X117640100Y-63652400D01*
X117640100Y-63652400D02*
X115100100Y-63652400D01*
X114820100Y-60832400D02*
X114820100Y-62382400D01*
D12*
X123668000Y-61984000D02*
X123668000Y-62984000D01*
X123668000Y-62984000D02*
X125768000Y-62984000D01*
X123668000Y-61984000D02*
X125768000Y-61984000D01*
X127770000Y-61984000D02*
X127770000Y-62984000D01*
X127770000Y-62984000D02*
X129870000Y-62984000D01*
X127770000Y-61984000D02*
X129870000Y-61984000D01*
D14*
X140004800Y-65913000D02*
X135255000Y-65913000D01*
X131572000Y-65913000D02*
X122986800Y-65913000D01*
X122986800Y-65913000D02*
X122986800Y-82169000D01*
X122986800Y-82169000D02*
X131572000Y-82169000D01*
X135255000Y-82169000D02*
X140004800Y-82169000D01*
X140004800Y-82169000D02*
X140004800Y-65913000D01*
X140004800Y-87820500D02*
X135255000Y-87820500D01*
X131572000Y-87820500D02*
X122986800Y-87820500D01*
X122986800Y-87820500D02*
X122986800Y-104076500D01*
X122986800Y-104076500D02*
X131572000Y-104076500D01*
X135255000Y-104076500D02*
X140004800Y-104076500D01*
X140004800Y-104076500D02*
X140004800Y-87820500D01*
X140004800Y-109728000D02*
X135255000Y-109728000D01*
X131572000Y-109728000D02*
X122986800Y-109728000D01*
X122986800Y-109728000D02*
X122986800Y-125984000D01*
X122986800Y-125984000D02*
X131572000Y-125984000D01*
X135255000Y-125984000D02*
X140004800Y-125984000D01*
X140004800Y-125984000D02*
X140004800Y-109728000D01*
X143205200Y-82296000D02*
X147955000Y-82296000D01*
X151638000Y-82296000D02*
X160223200Y-82296000D01*
X160223200Y-82296000D02*
X160223200Y-66040000D01*
X160223200Y-66040000D02*
X151638000Y-66040000D01*
X147955000Y-66040000D02*
X143205200Y-66040000D01*
X143205200Y-66040000D02*
X143205200Y-82296000D01*
X143205200Y-104076500D02*
X147955000Y-104076500D01*
X151638000Y-104076500D02*
X160223200Y-104076500D01*
X160223200Y-104076500D02*
X160223200Y-87820500D01*
X160223200Y-87820500D02*
X151638000Y-87820500D01*
X147955000Y-87820500D02*
X143205200Y-87820500D01*
X143205200Y-87820500D02*
X143205200Y-104076500D01*
X143205200Y-125984000D02*
X147955000Y-125984000D01*
X151638000Y-125984000D02*
X160223200Y-125984000D01*
X160223200Y-125984000D02*
X160223200Y-109728000D01*
X160223200Y-109728000D02*
X151638000Y-109728000D01*
X147955000Y-109728000D02*
X143205200Y-109728000D01*
X143205200Y-109728000D02*
X143205200Y-125984000D01*
D12*
X134426000Y-44136000D02*
X129226000Y-44136000D01*
X134426000Y-54356000D02*
X134426000Y-44136000D01*
X129226000Y-56956000D02*
X129226000Y-44136000D01*
X134426000Y-54356000D02*
X131826000Y-54356000D01*
X131826000Y-54356000D02*
X131826000Y-56956000D01*
X131826000Y-56956000D02*
X129226000Y-56956000D01*
X134426000Y-55626000D02*
X134426000Y-56956000D01*
X134426000Y-56956000D02*
X133096000Y-56956000D01*
D13*
X127936667Y-55840381D02*
X127936667Y-56554667D01*
X127889047Y-56697524D01*
X127793809Y-56792762D01*
X127650952Y-56840381D01*
X127555714Y-56840381D01*
X128317619Y-55840381D02*
X128984286Y-55840381D01*
X128555714Y-56840381D01*
X163892003Y-57734781D02*
X163892003Y-56734781D01*
X164272956Y-56734781D01*
X164368194Y-56782400D01*
X164415813Y-56830019D01*
X164463432Y-56925257D01*
X164463432Y-57068114D01*
X164415813Y-57163352D01*
X164368194Y-57210971D01*
X164272956Y-57258590D01*
X163892003Y-57258590D01*
X165034860Y-57163352D02*
X164939622Y-57115733D01*
X164892003Y-57068114D01*
X164844384Y-56972876D01*
X164844384Y-56925257D01*
X164892003Y-56830019D01*
X164939622Y-56782400D01*
X165034860Y-56734781D01*
X165225337Y-56734781D01*
X165320575Y-56782400D01*
X165368194Y-56830019D01*
X165415813Y-56925257D01*
X165415813Y-56972876D01*
X165368194Y-57068114D01*
X165320575Y-57115733D01*
X165225337Y-57163352D01*
X165034860Y-57163352D01*
X164939622Y-57210971D01*
X164892003Y-57258590D01*
X164844384Y-57353829D01*
X164844384Y-57544305D01*
X164892003Y-57639543D01*
X164939622Y-57687162D01*
X165034860Y-57734781D01*
X165225337Y-57734781D01*
X165320575Y-57687162D01*
X165368194Y-57639543D01*
X165415813Y-57544305D01*
X165415813Y-57353829D01*
X165368194Y-57258590D01*
X165320575Y-57210971D01*
X165225337Y-57163352D01*
X115632005Y-57734781D02*
X115632005Y-56734781D01*
X116012958Y-56734781D01*
X116108196Y-56782400D01*
X116155815Y-56830019D01*
X116203434Y-56925257D01*
X116203434Y-57068114D01*
X116155815Y-57163352D01*
X116108196Y-57210971D01*
X116012958Y-57258590D01*
X115632005Y-57258590D01*
X116679624Y-57734781D02*
X116870100Y-57734781D01*
X116965339Y-57687162D01*
X117012958Y-57639543D01*
X117108196Y-57496686D01*
X117155815Y-57306210D01*
X117155815Y-56925257D01*
X117108196Y-56830019D01*
X117060577Y-56782400D01*
X116965339Y-56734781D01*
X116774862Y-56734781D01*
X116679624Y-56782400D01*
X116632005Y-56830019D01*
X116584386Y-56925257D01*
X116584386Y-57163352D01*
X116632005Y-57258590D01*
X116679624Y-57306210D01*
X116774862Y-57353829D01*
X116965339Y-57353829D01*
X117060577Y-57306210D01*
X117108196Y-57258590D01*
X117155815Y-57163352D01*
X124229905Y-61686381D02*
X124229905Y-60686381D01*
X124468000Y-60686381D01*
X124610858Y-60734000D01*
X124706096Y-60829238D01*
X124753715Y-60924476D01*
X124801334Y-61114952D01*
X124801334Y-61257810D01*
X124753715Y-61448286D01*
X124706096Y-61543524D01*
X124610858Y-61638762D01*
X124468000Y-61686381D01*
X124229905Y-61686381D01*
X125753715Y-61686381D02*
X125182286Y-61686381D01*
X125468000Y-61686381D02*
X125468000Y-60686381D01*
X125372762Y-60829238D01*
X125277524Y-60924476D01*
X125182286Y-60972095D01*
X128331905Y-61686381D02*
X128331905Y-60686381D01*
X128570000Y-60686381D01*
X128712858Y-60734000D01*
X128808096Y-60829238D01*
X128855715Y-60924476D01*
X128903334Y-61114952D01*
X128903334Y-61257810D01*
X128855715Y-61448286D01*
X128808096Y-61543524D01*
X128712858Y-61638762D01*
X128570000Y-61686381D01*
X128331905Y-61686381D01*
X129284286Y-60781619D02*
X129331905Y-60734000D01*
X129427143Y-60686381D01*
X129665239Y-60686381D01*
X129760477Y-60734000D01*
X129808096Y-60781619D01*
X129855715Y-60876857D01*
X129855715Y-60972095D01*
X129808096Y-61114952D01*
X129236667Y-61686381D01*
X129855715Y-61686381D01*
D15*
X140419998Y-68076376D02*
X140992218Y-68076376D01*
X141106662Y-68114524D01*
X141182958Y-68190820D01*
X141221106Y-68305264D01*
X141221106Y-68381560D01*
X141221106Y-67275268D02*
X141221106Y-67733044D01*
X141221106Y-67504156D02*
X140419998Y-67504156D01*
X140534442Y-67580452D01*
X140610738Y-67656748D01*
X140648886Y-67733044D01*
X121935391Y-73577079D02*
X121965927Y-73485469D01*
X121965927Y-73332786D01*
X121935391Y-73271712D01*
X121904854Y-73241176D01*
X121843781Y-73210639D01*
X121782708Y-73210639D01*
X121721634Y-73241176D01*
X121691098Y-73271712D01*
X121660561Y-73332786D01*
X121630025Y-73454932D01*
X121599488Y-73516005D01*
X121568951Y-73546542D01*
X121507878Y-73577079D01*
X121446805Y-73577079D01*
X121385732Y-73546542D01*
X121355195Y-73516005D01*
X121324658Y-73454932D01*
X121324658Y-73302249D01*
X121355195Y-73210639D01*
X121935391Y-72966347D02*
X121965927Y-72874737D01*
X121965927Y-72722054D01*
X121935391Y-72660980D01*
X121904854Y-72630444D01*
X121843781Y-72599907D01*
X121782708Y-72599907D01*
X121721634Y-72630444D01*
X121691098Y-72660980D01*
X121660561Y-72722054D01*
X121630025Y-72844200D01*
X121599488Y-72905273D01*
X121568951Y-72935810D01*
X121507878Y-72966347D01*
X121446805Y-72966347D01*
X121385732Y-72935810D01*
X121355195Y-72905273D01*
X121324658Y-72844200D01*
X121324658Y-72691517D01*
X121355195Y-72599907D01*
X121721634Y-72325078D02*
X121721634Y-71836492D01*
X121324658Y-71256296D02*
X121324658Y-71378443D01*
X121355195Y-71439516D01*
X121385732Y-71470053D01*
X121477341Y-71531126D01*
X121599488Y-71561663D01*
X121843781Y-71561663D01*
X121904854Y-71531126D01*
X121935391Y-71500589D01*
X121965927Y-71439516D01*
X121965927Y-71317370D01*
X121935391Y-71256296D01*
X121904854Y-71225760D01*
X121843781Y-71195223D01*
X121691098Y-71195223D01*
X121630025Y-71225760D01*
X121599488Y-71256296D01*
X121568951Y-71317370D01*
X121568951Y-71439516D01*
X121599488Y-71500589D01*
X121630025Y-71531126D01*
X121691098Y-71561663D01*
X121324658Y-70798247D02*
X121324658Y-70737174D01*
X121355195Y-70676101D01*
X121385732Y-70645564D01*
X121446805Y-70615028D01*
X121568951Y-70584491D01*
X121721634Y-70584491D01*
X121843781Y-70615028D01*
X121904854Y-70645564D01*
X121935391Y-70676101D01*
X121965927Y-70737174D01*
X121965927Y-70798247D01*
X121935391Y-70859321D01*
X121904854Y-70889857D01*
X121843781Y-70920394D01*
X121721634Y-70950931D01*
X121568951Y-70950931D01*
X121446805Y-70920394D01*
X121385732Y-70889857D01*
X121355195Y-70859321D01*
X121324658Y-70798247D01*
X121324658Y-70187515D02*
X121324658Y-70126442D01*
X121355195Y-70065369D01*
X121385732Y-70034832D01*
X121446805Y-70004296D01*
X121568951Y-69973759D01*
X121721634Y-69973759D01*
X121843781Y-70004296D01*
X121904854Y-70034832D01*
X121935391Y-70065369D01*
X121965927Y-70126442D01*
X121965927Y-70187515D01*
X121935391Y-70248589D01*
X121904854Y-70279125D01*
X121843781Y-70309662D01*
X121721634Y-70340199D01*
X121568951Y-70340199D01*
X121446805Y-70309662D01*
X121385732Y-70279125D01*
X121355195Y-70248589D01*
X121324658Y-70187515D01*
X121324658Y-69576783D02*
X121324658Y-69515710D01*
X121355195Y-69454637D01*
X121385732Y-69424100D01*
X121446805Y-69393564D01*
X121568951Y-69363027D01*
X121721634Y-69363027D01*
X121843781Y-69393564D01*
X121904854Y-69424100D01*
X121935391Y-69454637D01*
X121965927Y-69515710D01*
X121965927Y-69576783D01*
X121935391Y-69637857D01*
X121904854Y-69668393D01*
X121843781Y-69698930D01*
X121721634Y-69729467D01*
X121568951Y-69729467D01*
X121446805Y-69698930D01*
X121385732Y-69668393D01*
X121355195Y-69637857D01*
X121324658Y-69576783D01*
X121324658Y-68966051D02*
X121324658Y-68904978D01*
X121355195Y-68843905D01*
X121385732Y-68813368D01*
X121446805Y-68782832D01*
X121568951Y-68752295D01*
X121721634Y-68752295D01*
X121843781Y-68782832D01*
X121904854Y-68813368D01*
X121935391Y-68843905D01*
X121965927Y-68904978D01*
X121965927Y-68966051D01*
X121935391Y-69027125D01*
X121904854Y-69057661D01*
X121843781Y-69088198D01*
X121721634Y-69118735D01*
X121568951Y-69118735D01*
X121446805Y-69088198D01*
X121385732Y-69057661D01*
X121355195Y-69027125D01*
X121324658Y-68966051D01*
X121721634Y-68477466D02*
X121721634Y-67988880D01*
X121324658Y-67561367D02*
X121324658Y-67500294D01*
X121355195Y-67439221D01*
X121385732Y-67408684D01*
X121446805Y-67378148D01*
X121568951Y-67347611D01*
X121721634Y-67347611D01*
X121843781Y-67378148D01*
X121904854Y-67408684D01*
X121935391Y-67439221D01*
X121965927Y-67500294D01*
X121965927Y-67561367D01*
X121935391Y-67622441D01*
X121904854Y-67652977D01*
X121843781Y-67683514D01*
X121721634Y-67714051D01*
X121568951Y-67714051D01*
X121446805Y-67683514D01*
X121385732Y-67652977D01*
X121355195Y-67622441D01*
X121324658Y-67561367D01*
X121324658Y-66950635D02*
X121324658Y-66889562D01*
X121355195Y-66828489D01*
X121385732Y-66797952D01*
X121446805Y-66767416D01*
X121568951Y-66736879D01*
X121721634Y-66736879D01*
X121843781Y-66767416D01*
X121904854Y-66797952D01*
X121935391Y-66828489D01*
X121965927Y-66889562D01*
X121965927Y-66950635D01*
X121935391Y-67011709D01*
X121904854Y-67042245D01*
X121843781Y-67072782D01*
X121721634Y-67103319D01*
X121568951Y-67103319D01*
X121446805Y-67072782D01*
X121385732Y-67042245D01*
X121355195Y-67011709D01*
X121324658Y-66950635D01*
X121599488Y-66370440D02*
X121568951Y-66431513D01*
X121538415Y-66462050D01*
X121477341Y-66492587D01*
X121446805Y-66492587D01*
X121385732Y-66462050D01*
X121355195Y-66431513D01*
X121324658Y-66370440D01*
X121324658Y-66248294D01*
X121355195Y-66187220D01*
X121385732Y-66156684D01*
X121446805Y-66126147D01*
X121477341Y-66126147D01*
X121538415Y-66156684D01*
X121568951Y-66187220D01*
X121599488Y-66248294D01*
X121599488Y-66370440D01*
X121630025Y-66431513D01*
X121660561Y-66462050D01*
X121721634Y-66492587D01*
X121843781Y-66492587D01*
X121904854Y-66462050D01*
X121935391Y-66431513D01*
X121965927Y-66370440D01*
X121965927Y-66248294D01*
X121935391Y-66187220D01*
X121904854Y-66156684D01*
X121843781Y-66126147D01*
X121721634Y-66126147D01*
X121660561Y-66156684D01*
X121630025Y-66187220D01*
X121599488Y-66248294D01*
X121721634Y-65851318D02*
X121721634Y-65362732D01*
X121935391Y-65087903D02*
X121965927Y-65026829D01*
X121965927Y-64904683D01*
X121935391Y-64843610D01*
X121874318Y-64813073D01*
X121843781Y-64813073D01*
X121782708Y-64843610D01*
X121752171Y-64904683D01*
X121752171Y-64996293D01*
X121721634Y-65057366D01*
X121660561Y-65087903D01*
X121630025Y-65087903D01*
X121568951Y-65057366D01*
X121538415Y-64996293D01*
X121538415Y-64904683D01*
X121568951Y-64843610D01*
X121538415Y-64629853D02*
X121538415Y-64385560D01*
X121324658Y-64538243D02*
X121874318Y-64538243D01*
X121935391Y-64507706D01*
X121965927Y-64446633D01*
X121965927Y-64385560D01*
X121935391Y-63927511D02*
X121965927Y-63988584D01*
X121965927Y-64110731D01*
X121935391Y-64171804D01*
X121874318Y-64202341D01*
X121630025Y-64202341D01*
X121568951Y-64171804D01*
X121538415Y-64110731D01*
X121538415Y-63988584D01*
X121568951Y-63927511D01*
X121630025Y-63896974D01*
X121691098Y-63896974D01*
X121752171Y-64202341D01*
X121538415Y-63622145D02*
X122179684Y-63622145D01*
X121568951Y-63622145D02*
X121538415Y-63561072D01*
X121538415Y-63438925D01*
X121568951Y-63377852D01*
X121599488Y-63347315D01*
X121660561Y-63316779D01*
X121843781Y-63316779D01*
X121904854Y-63347315D01*
X121935391Y-63377852D01*
X121965927Y-63438925D01*
X121965927Y-63561072D01*
X121935391Y-63622145D01*
X121965927Y-62767119D02*
X121324658Y-62767119D01*
X121935391Y-62767119D02*
X121965927Y-62828193D01*
X121965927Y-62950339D01*
X121935391Y-63011412D01*
X121904854Y-63041949D01*
X121843781Y-63072486D01*
X121660561Y-63072486D01*
X121599488Y-63041949D01*
X121568951Y-63011412D01*
X121538415Y-62950339D01*
X121538415Y-62828193D01*
X121568951Y-62767119D01*
X121965927Y-62461753D02*
X121538415Y-62461753D01*
X121324658Y-62461753D02*
X121355195Y-62492290D01*
X121385732Y-62461753D01*
X121355195Y-62431216D01*
X121324658Y-62461753D01*
X121385732Y-62461753D01*
X121965927Y-62156387D02*
X121538415Y-62156387D01*
X121660561Y-62156387D02*
X121599488Y-62125850D01*
X121568951Y-62095314D01*
X121538415Y-62034240D01*
X121538415Y-61973167D01*
X140419998Y-89983876D02*
X140992218Y-89983876D01*
X141106662Y-90022024D01*
X141182958Y-90098320D01*
X141221106Y-90212764D01*
X141221106Y-90289060D01*
X140496294Y-89640544D02*
X140458146Y-89602396D01*
X140419998Y-89526100D01*
X140419998Y-89335360D01*
X140458146Y-89259064D01*
X140496294Y-89220916D01*
X140572590Y-89182768D01*
X140648886Y-89182768D01*
X140763330Y-89220916D01*
X141221106Y-89678692D01*
X141221106Y-89182768D01*
X121935391Y-95484579D02*
X121965927Y-95392969D01*
X121965927Y-95240286D01*
X121935391Y-95179212D01*
X121904854Y-95148676D01*
X121843781Y-95118139D01*
X121782708Y-95118139D01*
X121721634Y-95148676D01*
X121691098Y-95179212D01*
X121660561Y-95240286D01*
X121630025Y-95362432D01*
X121599488Y-95423505D01*
X121568951Y-95454042D01*
X121507878Y-95484579D01*
X121446805Y-95484579D01*
X121385732Y-95454042D01*
X121355195Y-95423505D01*
X121324658Y-95362432D01*
X121324658Y-95209749D01*
X121355195Y-95118139D01*
X121935391Y-94873847D02*
X121965927Y-94782237D01*
X121965927Y-94629554D01*
X121935391Y-94568480D01*
X121904854Y-94537944D01*
X121843781Y-94507407D01*
X121782708Y-94507407D01*
X121721634Y-94537944D01*
X121691098Y-94568480D01*
X121660561Y-94629554D01*
X121630025Y-94751700D01*
X121599488Y-94812773D01*
X121568951Y-94843310D01*
X121507878Y-94873847D01*
X121446805Y-94873847D01*
X121385732Y-94843310D01*
X121355195Y-94812773D01*
X121324658Y-94751700D01*
X121324658Y-94599017D01*
X121355195Y-94507407D01*
X121721634Y-94232578D02*
X121721634Y-93743992D01*
X121324658Y-93163796D02*
X121324658Y-93285943D01*
X121355195Y-93347016D01*
X121385732Y-93377553D01*
X121477341Y-93438626D01*
X121599488Y-93469163D01*
X121843781Y-93469163D01*
X121904854Y-93438626D01*
X121935391Y-93408089D01*
X121965927Y-93347016D01*
X121965927Y-93224870D01*
X121935391Y-93163796D01*
X121904854Y-93133260D01*
X121843781Y-93102723D01*
X121691098Y-93102723D01*
X121630025Y-93133260D01*
X121599488Y-93163796D01*
X121568951Y-93224870D01*
X121568951Y-93347016D01*
X121599488Y-93408089D01*
X121630025Y-93438626D01*
X121691098Y-93469163D01*
X121324658Y-92705747D02*
X121324658Y-92644674D01*
X121355195Y-92583601D01*
X121385732Y-92553064D01*
X121446805Y-92522528D01*
X121568951Y-92491991D01*
X121721634Y-92491991D01*
X121843781Y-92522528D01*
X121904854Y-92553064D01*
X121935391Y-92583601D01*
X121965927Y-92644674D01*
X121965927Y-92705747D01*
X121935391Y-92766821D01*
X121904854Y-92797357D01*
X121843781Y-92827894D01*
X121721634Y-92858431D01*
X121568951Y-92858431D01*
X121446805Y-92827894D01*
X121385732Y-92797357D01*
X121355195Y-92766821D01*
X121324658Y-92705747D01*
X121324658Y-92095015D02*
X121324658Y-92033942D01*
X121355195Y-91972869D01*
X121385732Y-91942332D01*
X121446805Y-91911796D01*
X121568951Y-91881259D01*
X121721634Y-91881259D01*
X121843781Y-91911796D01*
X121904854Y-91942332D01*
X121935391Y-91972869D01*
X121965927Y-92033942D01*
X121965927Y-92095015D01*
X121935391Y-92156089D01*
X121904854Y-92186625D01*
X121843781Y-92217162D01*
X121721634Y-92247699D01*
X121568951Y-92247699D01*
X121446805Y-92217162D01*
X121385732Y-92186625D01*
X121355195Y-92156089D01*
X121324658Y-92095015D01*
X121324658Y-91484283D02*
X121324658Y-91423210D01*
X121355195Y-91362137D01*
X121385732Y-91331600D01*
X121446805Y-91301064D01*
X121568951Y-91270527D01*
X121721634Y-91270527D01*
X121843781Y-91301064D01*
X121904854Y-91331600D01*
X121935391Y-91362137D01*
X121965927Y-91423210D01*
X121965927Y-91484283D01*
X121935391Y-91545357D01*
X121904854Y-91575893D01*
X121843781Y-91606430D01*
X121721634Y-91636967D01*
X121568951Y-91636967D01*
X121446805Y-91606430D01*
X121385732Y-91575893D01*
X121355195Y-91545357D01*
X121324658Y-91484283D01*
X121324658Y-90873551D02*
X121324658Y-90812478D01*
X121355195Y-90751405D01*
X121385732Y-90720868D01*
X121446805Y-90690332D01*
X121568951Y-90659795D01*
X121721634Y-90659795D01*
X121843781Y-90690332D01*
X121904854Y-90720868D01*
X121935391Y-90751405D01*
X121965927Y-90812478D01*
X121965927Y-90873551D01*
X121935391Y-90934625D01*
X121904854Y-90965161D01*
X121843781Y-90995698D01*
X121721634Y-91026235D01*
X121568951Y-91026235D01*
X121446805Y-90995698D01*
X121385732Y-90965161D01*
X121355195Y-90934625D01*
X121324658Y-90873551D01*
X121721634Y-90384966D02*
X121721634Y-89896380D01*
X121324658Y-89468867D02*
X121324658Y-89407794D01*
X121355195Y-89346721D01*
X121385732Y-89316184D01*
X121446805Y-89285648D01*
X121568951Y-89255111D01*
X121721634Y-89255111D01*
X121843781Y-89285648D01*
X121904854Y-89316184D01*
X121935391Y-89346721D01*
X121965927Y-89407794D01*
X121965927Y-89468867D01*
X121935391Y-89529941D01*
X121904854Y-89560477D01*
X121843781Y-89591014D01*
X121721634Y-89621551D01*
X121568951Y-89621551D01*
X121446805Y-89591014D01*
X121385732Y-89560477D01*
X121355195Y-89529941D01*
X121324658Y-89468867D01*
X121324658Y-88858135D02*
X121324658Y-88797062D01*
X121355195Y-88735989D01*
X121385732Y-88705452D01*
X121446805Y-88674916D01*
X121568951Y-88644379D01*
X121721634Y-88644379D01*
X121843781Y-88674916D01*
X121904854Y-88705452D01*
X121935391Y-88735989D01*
X121965927Y-88797062D01*
X121965927Y-88858135D01*
X121935391Y-88919209D01*
X121904854Y-88949745D01*
X121843781Y-88980282D01*
X121721634Y-89010819D01*
X121568951Y-89010819D01*
X121446805Y-88980282D01*
X121385732Y-88949745D01*
X121355195Y-88919209D01*
X121324658Y-88858135D01*
X121599488Y-88277940D02*
X121568951Y-88339013D01*
X121538415Y-88369550D01*
X121477341Y-88400087D01*
X121446805Y-88400087D01*
X121385732Y-88369550D01*
X121355195Y-88339013D01*
X121324658Y-88277940D01*
X121324658Y-88155794D01*
X121355195Y-88094720D01*
X121385732Y-88064184D01*
X121446805Y-88033647D01*
X121477341Y-88033647D01*
X121538415Y-88064184D01*
X121568951Y-88094720D01*
X121599488Y-88155794D01*
X121599488Y-88277940D01*
X121630025Y-88339013D01*
X121660561Y-88369550D01*
X121721634Y-88400087D01*
X121843781Y-88400087D01*
X121904854Y-88369550D01*
X121935391Y-88339013D01*
X121965927Y-88277940D01*
X121965927Y-88155794D01*
X121935391Y-88094720D01*
X121904854Y-88064184D01*
X121843781Y-88033647D01*
X121721634Y-88033647D01*
X121660561Y-88064184D01*
X121630025Y-88094720D01*
X121599488Y-88155794D01*
X121721634Y-87758818D02*
X121721634Y-87270232D01*
X121935391Y-86995403D02*
X121965927Y-86934329D01*
X121965927Y-86812183D01*
X121935391Y-86751110D01*
X121874318Y-86720573D01*
X121843781Y-86720573D01*
X121782708Y-86751110D01*
X121752171Y-86812183D01*
X121752171Y-86903793D01*
X121721634Y-86964866D01*
X121660561Y-86995403D01*
X121630025Y-86995403D01*
X121568951Y-86964866D01*
X121538415Y-86903793D01*
X121538415Y-86812183D01*
X121568951Y-86751110D01*
X121538415Y-86537353D02*
X121538415Y-86293060D01*
X121324658Y-86445743D02*
X121874318Y-86445743D01*
X121935391Y-86415206D01*
X121965927Y-86354133D01*
X121965927Y-86293060D01*
X121935391Y-85835011D02*
X121965927Y-85896084D01*
X121965927Y-86018231D01*
X121935391Y-86079304D01*
X121874318Y-86109841D01*
X121630025Y-86109841D01*
X121568951Y-86079304D01*
X121538415Y-86018231D01*
X121538415Y-85896084D01*
X121568951Y-85835011D01*
X121630025Y-85804474D01*
X121691098Y-85804474D01*
X121752171Y-86109841D01*
X121538415Y-85529645D02*
X122179684Y-85529645D01*
X121568951Y-85529645D02*
X121538415Y-85468572D01*
X121538415Y-85346425D01*
X121568951Y-85285352D01*
X121599488Y-85254815D01*
X121660561Y-85224279D01*
X121843781Y-85224279D01*
X121904854Y-85254815D01*
X121935391Y-85285352D01*
X121965927Y-85346425D01*
X121965927Y-85468572D01*
X121935391Y-85529645D01*
X121965927Y-84674619D02*
X121324658Y-84674619D01*
X121935391Y-84674619D02*
X121965927Y-84735693D01*
X121965927Y-84857839D01*
X121935391Y-84918912D01*
X121904854Y-84949449D01*
X121843781Y-84979986D01*
X121660561Y-84979986D01*
X121599488Y-84949449D01*
X121568951Y-84918912D01*
X121538415Y-84857839D01*
X121538415Y-84735693D01*
X121568951Y-84674619D01*
X121965927Y-84369253D02*
X121538415Y-84369253D01*
X121324658Y-84369253D02*
X121355195Y-84399790D01*
X121385732Y-84369253D01*
X121355195Y-84338716D01*
X121324658Y-84369253D01*
X121385732Y-84369253D01*
X121965927Y-84063887D02*
X121538415Y-84063887D01*
X121660561Y-84063887D02*
X121599488Y-84033350D01*
X121568951Y-84002814D01*
X121538415Y-83941740D01*
X121538415Y-83880667D01*
X140419998Y-111891376D02*
X140992218Y-111891376D01*
X141106662Y-111929524D01*
X141182958Y-112005820D01*
X141221106Y-112120264D01*
X141221106Y-112196560D01*
X140419998Y-111586192D02*
X140419998Y-111090268D01*
X140725182Y-111357304D01*
X140725182Y-111242860D01*
X140763330Y-111166564D01*
X140801478Y-111128416D01*
X140877774Y-111090268D01*
X141068514Y-111090268D01*
X141144810Y-111128416D01*
X141182958Y-111166564D01*
X141221106Y-111242860D01*
X141221106Y-111471748D01*
X141182958Y-111548044D01*
X141144810Y-111586192D01*
X121935391Y-117392079D02*
X121965927Y-117300469D01*
X121965927Y-117147786D01*
X121935391Y-117086712D01*
X121904854Y-117056176D01*
X121843781Y-117025639D01*
X121782708Y-117025639D01*
X121721634Y-117056176D01*
X121691098Y-117086712D01*
X121660561Y-117147786D01*
X121630025Y-117269932D01*
X121599488Y-117331005D01*
X121568951Y-117361542D01*
X121507878Y-117392079D01*
X121446805Y-117392079D01*
X121385732Y-117361542D01*
X121355195Y-117331005D01*
X121324658Y-117269932D01*
X121324658Y-117117249D01*
X121355195Y-117025639D01*
X121935391Y-116781347D02*
X121965927Y-116689737D01*
X121965927Y-116537054D01*
X121935391Y-116475980D01*
X121904854Y-116445444D01*
X121843781Y-116414907D01*
X121782708Y-116414907D01*
X121721634Y-116445444D01*
X121691098Y-116475980D01*
X121660561Y-116537054D01*
X121630025Y-116659200D01*
X121599488Y-116720273D01*
X121568951Y-116750810D01*
X121507878Y-116781347D01*
X121446805Y-116781347D01*
X121385732Y-116750810D01*
X121355195Y-116720273D01*
X121324658Y-116659200D01*
X121324658Y-116506517D01*
X121355195Y-116414907D01*
X121721634Y-116140078D02*
X121721634Y-115651492D01*
X121324658Y-115071296D02*
X121324658Y-115193443D01*
X121355195Y-115254516D01*
X121385732Y-115285053D01*
X121477341Y-115346126D01*
X121599488Y-115376663D01*
X121843781Y-115376663D01*
X121904854Y-115346126D01*
X121935391Y-115315589D01*
X121965927Y-115254516D01*
X121965927Y-115132370D01*
X121935391Y-115071296D01*
X121904854Y-115040760D01*
X121843781Y-115010223D01*
X121691098Y-115010223D01*
X121630025Y-115040760D01*
X121599488Y-115071296D01*
X121568951Y-115132370D01*
X121568951Y-115254516D01*
X121599488Y-115315589D01*
X121630025Y-115346126D01*
X121691098Y-115376663D01*
X121324658Y-114613247D02*
X121324658Y-114552174D01*
X121355195Y-114491101D01*
X121385732Y-114460564D01*
X121446805Y-114430028D01*
X121568951Y-114399491D01*
X121721634Y-114399491D01*
X121843781Y-114430028D01*
X121904854Y-114460564D01*
X121935391Y-114491101D01*
X121965927Y-114552174D01*
X121965927Y-114613247D01*
X121935391Y-114674321D01*
X121904854Y-114704857D01*
X121843781Y-114735394D01*
X121721634Y-114765931D01*
X121568951Y-114765931D01*
X121446805Y-114735394D01*
X121385732Y-114704857D01*
X121355195Y-114674321D01*
X121324658Y-114613247D01*
X121324658Y-114002515D02*
X121324658Y-113941442D01*
X121355195Y-113880369D01*
X121385732Y-113849832D01*
X121446805Y-113819296D01*
X121568951Y-113788759D01*
X121721634Y-113788759D01*
X121843781Y-113819296D01*
X121904854Y-113849832D01*
X121935391Y-113880369D01*
X121965927Y-113941442D01*
X121965927Y-114002515D01*
X121935391Y-114063589D01*
X121904854Y-114094125D01*
X121843781Y-114124662D01*
X121721634Y-114155199D01*
X121568951Y-114155199D01*
X121446805Y-114124662D01*
X121385732Y-114094125D01*
X121355195Y-114063589D01*
X121324658Y-114002515D01*
X121324658Y-113391783D02*
X121324658Y-113330710D01*
X121355195Y-113269637D01*
X121385732Y-113239100D01*
X121446805Y-113208564D01*
X121568951Y-113178027D01*
X121721634Y-113178027D01*
X121843781Y-113208564D01*
X121904854Y-113239100D01*
X121935391Y-113269637D01*
X121965927Y-113330710D01*
X121965927Y-113391783D01*
X121935391Y-113452857D01*
X121904854Y-113483393D01*
X121843781Y-113513930D01*
X121721634Y-113544467D01*
X121568951Y-113544467D01*
X121446805Y-113513930D01*
X121385732Y-113483393D01*
X121355195Y-113452857D01*
X121324658Y-113391783D01*
X121324658Y-112781051D02*
X121324658Y-112719978D01*
X121355195Y-112658905D01*
X121385732Y-112628368D01*
X121446805Y-112597832D01*
X121568951Y-112567295D01*
X121721634Y-112567295D01*
X121843781Y-112597832D01*
X121904854Y-112628368D01*
X121935391Y-112658905D01*
X121965927Y-112719978D01*
X121965927Y-112781051D01*
X121935391Y-112842125D01*
X121904854Y-112872661D01*
X121843781Y-112903198D01*
X121721634Y-112933735D01*
X121568951Y-112933735D01*
X121446805Y-112903198D01*
X121385732Y-112872661D01*
X121355195Y-112842125D01*
X121324658Y-112781051D01*
X121721634Y-112292466D02*
X121721634Y-111803880D01*
X121324658Y-111376367D02*
X121324658Y-111315294D01*
X121355195Y-111254221D01*
X121385732Y-111223684D01*
X121446805Y-111193148D01*
X121568951Y-111162611D01*
X121721634Y-111162611D01*
X121843781Y-111193148D01*
X121904854Y-111223684D01*
X121935391Y-111254221D01*
X121965927Y-111315294D01*
X121965927Y-111376367D01*
X121935391Y-111437441D01*
X121904854Y-111467977D01*
X121843781Y-111498514D01*
X121721634Y-111529051D01*
X121568951Y-111529051D01*
X121446805Y-111498514D01*
X121385732Y-111467977D01*
X121355195Y-111437441D01*
X121324658Y-111376367D01*
X121324658Y-110765635D02*
X121324658Y-110704562D01*
X121355195Y-110643489D01*
X121385732Y-110612952D01*
X121446805Y-110582416D01*
X121568951Y-110551879D01*
X121721634Y-110551879D01*
X121843781Y-110582416D01*
X121904854Y-110612952D01*
X121935391Y-110643489D01*
X121965927Y-110704562D01*
X121965927Y-110765635D01*
X121935391Y-110826709D01*
X121904854Y-110857245D01*
X121843781Y-110887782D01*
X121721634Y-110918319D01*
X121568951Y-110918319D01*
X121446805Y-110887782D01*
X121385732Y-110857245D01*
X121355195Y-110826709D01*
X121324658Y-110765635D01*
X121599488Y-110185440D02*
X121568951Y-110246513D01*
X121538415Y-110277050D01*
X121477341Y-110307587D01*
X121446805Y-110307587D01*
X121385732Y-110277050D01*
X121355195Y-110246513D01*
X121324658Y-110185440D01*
X121324658Y-110063294D01*
X121355195Y-110002220D01*
X121385732Y-109971684D01*
X121446805Y-109941147D01*
X121477341Y-109941147D01*
X121538415Y-109971684D01*
X121568951Y-110002220D01*
X121599488Y-110063294D01*
X121599488Y-110185440D01*
X121630025Y-110246513D01*
X121660561Y-110277050D01*
X121721634Y-110307587D01*
X121843781Y-110307587D01*
X121904854Y-110277050D01*
X121935391Y-110246513D01*
X121965927Y-110185440D01*
X121965927Y-110063294D01*
X121935391Y-110002220D01*
X121904854Y-109971684D01*
X121843781Y-109941147D01*
X121721634Y-109941147D01*
X121660561Y-109971684D01*
X121630025Y-110002220D01*
X121599488Y-110063294D01*
X121721634Y-109666318D02*
X121721634Y-109177732D01*
X121935391Y-108902903D02*
X121965927Y-108841829D01*
X121965927Y-108719683D01*
X121935391Y-108658610D01*
X121874318Y-108628073D01*
X121843781Y-108628073D01*
X121782708Y-108658610D01*
X121752171Y-108719683D01*
X121752171Y-108811293D01*
X121721634Y-108872366D01*
X121660561Y-108902903D01*
X121630025Y-108902903D01*
X121568951Y-108872366D01*
X121538415Y-108811293D01*
X121538415Y-108719683D01*
X121568951Y-108658610D01*
X121538415Y-108444853D02*
X121538415Y-108200560D01*
X121324658Y-108353243D02*
X121874318Y-108353243D01*
X121935391Y-108322706D01*
X121965927Y-108261633D01*
X121965927Y-108200560D01*
X121935391Y-107742511D02*
X121965927Y-107803584D01*
X121965927Y-107925731D01*
X121935391Y-107986804D01*
X121874318Y-108017341D01*
X121630025Y-108017341D01*
X121568951Y-107986804D01*
X121538415Y-107925731D01*
X121538415Y-107803584D01*
X121568951Y-107742511D01*
X121630025Y-107711974D01*
X121691098Y-107711974D01*
X121752171Y-108017341D01*
X121538415Y-107437145D02*
X122179684Y-107437145D01*
X121568951Y-107437145D02*
X121538415Y-107376072D01*
X121538415Y-107253925D01*
X121568951Y-107192852D01*
X121599488Y-107162315D01*
X121660561Y-107131779D01*
X121843781Y-107131779D01*
X121904854Y-107162315D01*
X121935391Y-107192852D01*
X121965927Y-107253925D01*
X121965927Y-107376072D01*
X121935391Y-107437145D01*
X121965927Y-106582119D02*
X121324658Y-106582119D01*
X121935391Y-106582119D02*
X121965927Y-106643193D01*
X121965927Y-106765339D01*
X121935391Y-106826412D01*
X121904854Y-106856949D01*
X121843781Y-106887486D01*
X121660561Y-106887486D01*
X121599488Y-106856949D01*
X121568951Y-106826412D01*
X121538415Y-106765339D01*
X121538415Y-106643193D01*
X121568951Y-106582119D01*
X121965927Y-106276753D02*
X121538415Y-106276753D01*
X121324658Y-106276753D02*
X121355195Y-106307290D01*
X121385732Y-106276753D01*
X121355195Y-106246216D01*
X121324658Y-106276753D01*
X121385732Y-106276753D01*
X121965927Y-105971387D02*
X121538415Y-105971387D01*
X121660561Y-105971387D02*
X121599488Y-105940850D01*
X121568951Y-105910314D01*
X121538415Y-105849240D01*
X121538415Y-105788167D01*
X141912598Y-80666696D02*
X142484818Y-80666696D01*
X142599262Y-80704844D01*
X142675558Y-80781140D01*
X142713706Y-80895584D01*
X142713706Y-80971880D01*
X142179634Y-79941884D02*
X142713706Y-79941884D01*
X141874450Y-80132624D02*
X142446670Y-80323364D01*
X142446670Y-79827440D01*
X161793731Y-86174759D02*
X161824267Y-86083149D01*
X161824267Y-85930466D01*
X161793731Y-85869392D01*
X161763194Y-85838856D01*
X161702121Y-85808319D01*
X161641048Y-85808319D01*
X161579974Y-85838856D01*
X161549438Y-85869392D01*
X161518901Y-85930466D01*
X161488365Y-86052612D01*
X161457828Y-86113685D01*
X161427291Y-86144222D01*
X161366218Y-86174759D01*
X161305145Y-86174759D01*
X161244072Y-86144222D01*
X161213535Y-86113685D01*
X161182998Y-86052612D01*
X161182998Y-85899929D01*
X161213535Y-85808319D01*
X161793731Y-85564027D02*
X161824267Y-85472417D01*
X161824267Y-85319734D01*
X161793731Y-85258660D01*
X161763194Y-85228124D01*
X161702121Y-85197587D01*
X161641048Y-85197587D01*
X161579974Y-85228124D01*
X161549438Y-85258660D01*
X161518901Y-85319734D01*
X161488365Y-85441880D01*
X161457828Y-85502953D01*
X161427291Y-85533490D01*
X161366218Y-85564027D01*
X161305145Y-85564027D01*
X161244072Y-85533490D01*
X161213535Y-85502953D01*
X161182998Y-85441880D01*
X161182998Y-85289197D01*
X161213535Y-85197587D01*
X161579974Y-84922758D02*
X161579974Y-84434172D01*
X161182998Y-83853976D02*
X161182998Y-83976123D01*
X161213535Y-84037196D01*
X161244072Y-84067733D01*
X161335681Y-84128806D01*
X161457828Y-84159343D01*
X161702121Y-84159343D01*
X161763194Y-84128806D01*
X161793731Y-84098269D01*
X161824267Y-84037196D01*
X161824267Y-83915050D01*
X161793731Y-83853976D01*
X161763194Y-83823440D01*
X161702121Y-83792903D01*
X161549438Y-83792903D01*
X161488365Y-83823440D01*
X161457828Y-83853976D01*
X161427291Y-83915050D01*
X161427291Y-84037196D01*
X161457828Y-84098269D01*
X161488365Y-84128806D01*
X161549438Y-84159343D01*
X161182998Y-83395927D02*
X161182998Y-83334854D01*
X161213535Y-83273781D01*
X161244072Y-83243244D01*
X161305145Y-83212708D01*
X161427291Y-83182171D01*
X161579974Y-83182171D01*
X161702121Y-83212708D01*
X161763194Y-83243244D01*
X161793731Y-83273781D01*
X161824267Y-83334854D01*
X161824267Y-83395927D01*
X161793731Y-83457001D01*
X161763194Y-83487537D01*
X161702121Y-83518074D01*
X161579974Y-83548611D01*
X161427291Y-83548611D01*
X161305145Y-83518074D01*
X161244072Y-83487537D01*
X161213535Y-83457001D01*
X161182998Y-83395927D01*
X161182998Y-82785195D02*
X161182998Y-82724122D01*
X161213535Y-82663049D01*
X161244072Y-82632512D01*
X161305145Y-82601976D01*
X161427291Y-82571439D01*
X161579974Y-82571439D01*
X161702121Y-82601976D01*
X161763194Y-82632512D01*
X161793731Y-82663049D01*
X161824267Y-82724122D01*
X161824267Y-82785195D01*
X161793731Y-82846269D01*
X161763194Y-82876805D01*
X161702121Y-82907342D01*
X161579974Y-82937879D01*
X161427291Y-82937879D01*
X161305145Y-82907342D01*
X161244072Y-82876805D01*
X161213535Y-82846269D01*
X161182998Y-82785195D01*
X161182998Y-82174463D02*
X161182998Y-82113390D01*
X161213535Y-82052317D01*
X161244072Y-82021780D01*
X161305145Y-81991244D01*
X161427291Y-81960707D01*
X161579974Y-81960707D01*
X161702121Y-81991244D01*
X161763194Y-82021780D01*
X161793731Y-82052317D01*
X161824267Y-82113390D01*
X161824267Y-82174463D01*
X161793731Y-82235537D01*
X161763194Y-82266073D01*
X161702121Y-82296610D01*
X161579974Y-82327147D01*
X161427291Y-82327147D01*
X161305145Y-82296610D01*
X161244072Y-82266073D01*
X161213535Y-82235537D01*
X161182998Y-82174463D01*
X161182998Y-81563731D02*
X161182998Y-81502658D01*
X161213535Y-81441585D01*
X161244072Y-81411048D01*
X161305145Y-81380512D01*
X161427291Y-81349975D01*
X161579974Y-81349975D01*
X161702121Y-81380512D01*
X161763194Y-81411048D01*
X161793731Y-81441585D01*
X161824267Y-81502658D01*
X161824267Y-81563731D01*
X161793731Y-81624805D01*
X161763194Y-81655341D01*
X161702121Y-81685878D01*
X161579974Y-81716415D01*
X161427291Y-81716415D01*
X161305145Y-81685878D01*
X161244072Y-81655341D01*
X161213535Y-81624805D01*
X161182998Y-81563731D01*
X161579974Y-81075146D02*
X161579974Y-80586560D01*
X161182998Y-80159047D02*
X161182998Y-80097974D01*
X161213535Y-80036901D01*
X161244072Y-80006364D01*
X161305145Y-79975828D01*
X161427291Y-79945291D01*
X161579974Y-79945291D01*
X161702121Y-79975828D01*
X161763194Y-80006364D01*
X161793731Y-80036901D01*
X161824267Y-80097974D01*
X161824267Y-80159047D01*
X161793731Y-80220121D01*
X161763194Y-80250657D01*
X161702121Y-80281194D01*
X161579974Y-80311731D01*
X161427291Y-80311731D01*
X161305145Y-80281194D01*
X161244072Y-80250657D01*
X161213535Y-80220121D01*
X161182998Y-80159047D01*
X161182998Y-79548315D02*
X161182998Y-79487242D01*
X161213535Y-79426169D01*
X161244072Y-79395632D01*
X161305145Y-79365096D01*
X161427291Y-79334559D01*
X161579974Y-79334559D01*
X161702121Y-79365096D01*
X161763194Y-79395632D01*
X161793731Y-79426169D01*
X161824267Y-79487242D01*
X161824267Y-79548315D01*
X161793731Y-79609389D01*
X161763194Y-79639925D01*
X161702121Y-79670462D01*
X161579974Y-79700999D01*
X161427291Y-79700999D01*
X161305145Y-79670462D01*
X161244072Y-79639925D01*
X161213535Y-79609389D01*
X161182998Y-79548315D01*
X161457828Y-78968120D02*
X161427291Y-79029193D01*
X161396755Y-79059730D01*
X161335681Y-79090267D01*
X161305145Y-79090267D01*
X161244072Y-79059730D01*
X161213535Y-79029193D01*
X161182998Y-78968120D01*
X161182998Y-78845974D01*
X161213535Y-78784900D01*
X161244072Y-78754364D01*
X161305145Y-78723827D01*
X161335681Y-78723827D01*
X161396755Y-78754364D01*
X161427291Y-78784900D01*
X161457828Y-78845974D01*
X161457828Y-78968120D01*
X161488365Y-79029193D01*
X161518901Y-79059730D01*
X161579974Y-79090267D01*
X161702121Y-79090267D01*
X161763194Y-79059730D01*
X161793731Y-79029193D01*
X161824267Y-78968120D01*
X161824267Y-78845974D01*
X161793731Y-78784900D01*
X161763194Y-78754364D01*
X161702121Y-78723827D01*
X161579974Y-78723827D01*
X161518901Y-78754364D01*
X161488365Y-78784900D01*
X161457828Y-78845974D01*
X161579974Y-78448998D02*
X161579974Y-77960412D01*
X161793731Y-77685583D02*
X161824267Y-77624509D01*
X161824267Y-77502363D01*
X161793731Y-77441290D01*
X161732658Y-77410753D01*
X161702121Y-77410753D01*
X161641048Y-77441290D01*
X161610511Y-77502363D01*
X161610511Y-77593973D01*
X161579974Y-77655046D01*
X161518901Y-77685583D01*
X161488365Y-77685583D01*
X161427291Y-77655046D01*
X161396755Y-77593973D01*
X161396755Y-77502363D01*
X161427291Y-77441290D01*
X161396755Y-77227533D02*
X161396755Y-76983240D01*
X161182998Y-77135923D02*
X161732658Y-77135923D01*
X161793731Y-77105386D01*
X161824267Y-77044313D01*
X161824267Y-76983240D01*
X161793731Y-76525191D02*
X161824267Y-76586264D01*
X161824267Y-76708411D01*
X161793731Y-76769484D01*
X161732658Y-76800021D01*
X161488365Y-76800021D01*
X161427291Y-76769484D01*
X161396755Y-76708411D01*
X161396755Y-76586264D01*
X161427291Y-76525191D01*
X161488365Y-76494654D01*
X161549438Y-76494654D01*
X161610511Y-76800021D01*
X161396755Y-76219825D02*
X162038024Y-76219825D01*
X161427291Y-76219825D02*
X161396755Y-76158752D01*
X161396755Y-76036605D01*
X161427291Y-75975532D01*
X161457828Y-75944995D01*
X161518901Y-75914459D01*
X161702121Y-75914459D01*
X161763194Y-75944995D01*
X161793731Y-75975532D01*
X161824267Y-76036605D01*
X161824267Y-76158752D01*
X161793731Y-76219825D01*
X161824267Y-75364799D02*
X161182998Y-75364799D01*
X161793731Y-75364799D02*
X161824267Y-75425873D01*
X161824267Y-75548019D01*
X161793731Y-75609092D01*
X161763194Y-75639629D01*
X161702121Y-75670166D01*
X161518901Y-75670166D01*
X161457828Y-75639629D01*
X161427291Y-75609092D01*
X161396755Y-75548019D01*
X161396755Y-75425873D01*
X161427291Y-75364799D01*
X161824267Y-75059433D02*
X161396755Y-75059433D01*
X161182998Y-75059433D02*
X161213535Y-75089970D01*
X161244072Y-75059433D01*
X161213535Y-75028896D01*
X161182998Y-75059433D01*
X161244072Y-75059433D01*
X161824267Y-74754067D02*
X161396755Y-74754067D01*
X161518901Y-74754067D02*
X161457828Y-74723530D01*
X161427291Y-74692994D01*
X161396755Y-74631920D01*
X161396755Y-74570847D01*
X141912598Y-102447196D02*
X142484818Y-102447196D01*
X142599262Y-102485344D01*
X142675558Y-102561640D01*
X142713706Y-102676084D01*
X142713706Y-102752380D01*
X141912598Y-101684236D02*
X141912598Y-102065716D01*
X142294078Y-102103864D01*
X142255930Y-102065716D01*
X142217782Y-101989420D01*
X142217782Y-101798680D01*
X142255930Y-101722384D01*
X142294078Y-101684236D01*
X142370374Y-101646088D01*
X142561114Y-101646088D01*
X142637410Y-101684236D01*
X142675558Y-101722384D01*
X142713706Y-101798680D01*
X142713706Y-101989420D01*
X142675558Y-102065716D01*
X142637410Y-102103864D01*
X161793731Y-107955259D02*
X161824267Y-107863649D01*
X161824267Y-107710966D01*
X161793731Y-107649892D01*
X161763194Y-107619356D01*
X161702121Y-107588819D01*
X161641048Y-107588819D01*
X161579974Y-107619356D01*
X161549438Y-107649892D01*
X161518901Y-107710966D01*
X161488365Y-107833112D01*
X161457828Y-107894185D01*
X161427291Y-107924722D01*
X161366218Y-107955259D01*
X161305145Y-107955259D01*
X161244072Y-107924722D01*
X161213535Y-107894185D01*
X161182998Y-107833112D01*
X161182998Y-107680429D01*
X161213535Y-107588819D01*
X161793731Y-107344527D02*
X161824267Y-107252917D01*
X161824267Y-107100234D01*
X161793731Y-107039160D01*
X161763194Y-107008624D01*
X161702121Y-106978087D01*
X161641048Y-106978087D01*
X161579974Y-107008624D01*
X161549438Y-107039160D01*
X161518901Y-107100234D01*
X161488365Y-107222380D01*
X161457828Y-107283453D01*
X161427291Y-107313990D01*
X161366218Y-107344527D01*
X161305145Y-107344527D01*
X161244072Y-107313990D01*
X161213535Y-107283453D01*
X161182998Y-107222380D01*
X161182998Y-107069697D01*
X161213535Y-106978087D01*
X161579974Y-106703258D02*
X161579974Y-106214672D01*
X161182998Y-105634476D02*
X161182998Y-105756623D01*
X161213535Y-105817696D01*
X161244072Y-105848233D01*
X161335681Y-105909306D01*
X161457828Y-105939843D01*
X161702121Y-105939843D01*
X161763194Y-105909306D01*
X161793731Y-105878769D01*
X161824267Y-105817696D01*
X161824267Y-105695550D01*
X161793731Y-105634476D01*
X161763194Y-105603940D01*
X161702121Y-105573403D01*
X161549438Y-105573403D01*
X161488365Y-105603940D01*
X161457828Y-105634476D01*
X161427291Y-105695550D01*
X161427291Y-105817696D01*
X161457828Y-105878769D01*
X161488365Y-105909306D01*
X161549438Y-105939843D01*
X161182998Y-105176427D02*
X161182998Y-105115354D01*
X161213535Y-105054281D01*
X161244072Y-105023744D01*
X161305145Y-104993208D01*
X161427291Y-104962671D01*
X161579974Y-104962671D01*
X161702121Y-104993208D01*
X161763194Y-105023744D01*
X161793731Y-105054281D01*
X161824267Y-105115354D01*
X161824267Y-105176427D01*
X161793731Y-105237501D01*
X161763194Y-105268037D01*
X161702121Y-105298574D01*
X161579974Y-105329111D01*
X161427291Y-105329111D01*
X161305145Y-105298574D01*
X161244072Y-105268037D01*
X161213535Y-105237501D01*
X161182998Y-105176427D01*
X161182998Y-104565695D02*
X161182998Y-104504622D01*
X161213535Y-104443549D01*
X161244072Y-104413012D01*
X161305145Y-104382476D01*
X161427291Y-104351939D01*
X161579974Y-104351939D01*
X161702121Y-104382476D01*
X161763194Y-104413012D01*
X161793731Y-104443549D01*
X161824267Y-104504622D01*
X161824267Y-104565695D01*
X161793731Y-104626769D01*
X161763194Y-104657305D01*
X161702121Y-104687842D01*
X161579974Y-104718379D01*
X161427291Y-104718379D01*
X161305145Y-104687842D01*
X161244072Y-104657305D01*
X161213535Y-104626769D01*
X161182998Y-104565695D01*
X161182998Y-103954963D02*
X161182998Y-103893890D01*
X161213535Y-103832817D01*
X161244072Y-103802280D01*
X161305145Y-103771744D01*
X161427291Y-103741207D01*
X161579974Y-103741207D01*
X161702121Y-103771744D01*
X161763194Y-103802280D01*
X161793731Y-103832817D01*
X161824267Y-103893890D01*
X161824267Y-103954963D01*
X161793731Y-104016037D01*
X161763194Y-104046573D01*
X161702121Y-104077110D01*
X161579974Y-104107647D01*
X161427291Y-104107647D01*
X161305145Y-104077110D01*
X161244072Y-104046573D01*
X161213535Y-104016037D01*
X161182998Y-103954963D01*
X161182998Y-103344231D02*
X161182998Y-103283158D01*
X161213535Y-103222085D01*
X161244072Y-103191548D01*
X161305145Y-103161012D01*
X161427291Y-103130475D01*
X161579974Y-103130475D01*
X161702121Y-103161012D01*
X161763194Y-103191548D01*
X161793731Y-103222085D01*
X161824267Y-103283158D01*
X161824267Y-103344231D01*
X161793731Y-103405305D01*
X161763194Y-103435841D01*
X161702121Y-103466378D01*
X161579974Y-103496915D01*
X161427291Y-103496915D01*
X161305145Y-103466378D01*
X161244072Y-103435841D01*
X161213535Y-103405305D01*
X161182998Y-103344231D01*
X161579974Y-102855646D02*
X161579974Y-102367060D01*
X161182998Y-101939547D02*
X161182998Y-101878474D01*
X161213535Y-101817401D01*
X161244072Y-101786864D01*
X161305145Y-101756328D01*
X161427291Y-101725791D01*
X161579974Y-101725791D01*
X161702121Y-101756328D01*
X161763194Y-101786864D01*
X161793731Y-101817401D01*
X161824267Y-101878474D01*
X161824267Y-101939547D01*
X161793731Y-102000621D01*
X161763194Y-102031157D01*
X161702121Y-102061694D01*
X161579974Y-102092231D01*
X161427291Y-102092231D01*
X161305145Y-102061694D01*
X161244072Y-102031157D01*
X161213535Y-102000621D01*
X161182998Y-101939547D01*
X161182998Y-101328815D02*
X161182998Y-101267742D01*
X161213535Y-101206669D01*
X161244072Y-101176132D01*
X161305145Y-101145596D01*
X161427291Y-101115059D01*
X161579974Y-101115059D01*
X161702121Y-101145596D01*
X161763194Y-101176132D01*
X161793731Y-101206669D01*
X161824267Y-101267742D01*
X161824267Y-101328815D01*
X161793731Y-101389889D01*
X161763194Y-101420425D01*
X161702121Y-101450962D01*
X161579974Y-101481499D01*
X161427291Y-101481499D01*
X161305145Y-101450962D01*
X161244072Y-101420425D01*
X161213535Y-101389889D01*
X161182998Y-101328815D01*
X161457828Y-100748620D02*
X161427291Y-100809693D01*
X161396755Y-100840230D01*
X161335681Y-100870767D01*
X161305145Y-100870767D01*
X161244072Y-100840230D01*
X161213535Y-100809693D01*
X161182998Y-100748620D01*
X161182998Y-100626474D01*
X161213535Y-100565400D01*
X161244072Y-100534864D01*
X161305145Y-100504327D01*
X161335681Y-100504327D01*
X161396755Y-100534864D01*
X161427291Y-100565400D01*
X161457828Y-100626474D01*
X161457828Y-100748620D01*
X161488365Y-100809693D01*
X161518901Y-100840230D01*
X161579974Y-100870767D01*
X161702121Y-100870767D01*
X161763194Y-100840230D01*
X161793731Y-100809693D01*
X161824267Y-100748620D01*
X161824267Y-100626474D01*
X161793731Y-100565400D01*
X161763194Y-100534864D01*
X161702121Y-100504327D01*
X161579974Y-100504327D01*
X161518901Y-100534864D01*
X161488365Y-100565400D01*
X161457828Y-100626474D01*
X161579974Y-100229498D02*
X161579974Y-99740912D01*
X161793731Y-99466083D02*
X161824267Y-99405009D01*
X161824267Y-99282863D01*
X161793731Y-99221790D01*
X161732658Y-99191253D01*
X161702121Y-99191253D01*
X161641048Y-99221790D01*
X161610511Y-99282863D01*
X161610511Y-99374473D01*
X161579974Y-99435546D01*
X161518901Y-99466083D01*
X161488365Y-99466083D01*
X161427291Y-99435546D01*
X161396755Y-99374473D01*
X161396755Y-99282863D01*
X161427291Y-99221790D01*
X161396755Y-99008033D02*
X161396755Y-98763740D01*
X161182998Y-98916423D02*
X161732658Y-98916423D01*
X161793731Y-98885886D01*
X161824267Y-98824813D01*
X161824267Y-98763740D01*
X161793731Y-98305691D02*
X161824267Y-98366764D01*
X161824267Y-98488911D01*
X161793731Y-98549984D01*
X161732658Y-98580521D01*
X161488365Y-98580521D01*
X161427291Y-98549984D01*
X161396755Y-98488911D01*
X161396755Y-98366764D01*
X161427291Y-98305691D01*
X161488365Y-98275154D01*
X161549438Y-98275154D01*
X161610511Y-98580521D01*
X161396755Y-98000325D02*
X162038024Y-98000325D01*
X161427291Y-98000325D02*
X161396755Y-97939252D01*
X161396755Y-97817105D01*
X161427291Y-97756032D01*
X161457828Y-97725495D01*
X161518901Y-97694959D01*
X161702121Y-97694959D01*
X161763194Y-97725495D01*
X161793731Y-97756032D01*
X161824267Y-97817105D01*
X161824267Y-97939252D01*
X161793731Y-98000325D01*
X161824267Y-97145299D02*
X161182998Y-97145299D01*
X161793731Y-97145299D02*
X161824267Y-97206373D01*
X161824267Y-97328519D01*
X161793731Y-97389592D01*
X161763194Y-97420129D01*
X161702121Y-97450666D01*
X161518901Y-97450666D01*
X161457828Y-97420129D01*
X161427291Y-97389592D01*
X161396755Y-97328519D01*
X161396755Y-97206373D01*
X161427291Y-97145299D01*
X161824267Y-96839933D02*
X161396755Y-96839933D01*
X161182998Y-96839933D02*
X161213535Y-96870470D01*
X161244072Y-96839933D01*
X161213535Y-96809396D01*
X161182998Y-96839933D01*
X161244072Y-96839933D01*
X161824267Y-96534567D02*
X161396755Y-96534567D01*
X161518901Y-96534567D02*
X161457828Y-96504030D01*
X161427291Y-96473494D01*
X161396755Y-96412420D01*
X161396755Y-96351347D01*
X141912598Y-124354696D02*
X142484818Y-124354696D01*
X142599262Y-124392844D01*
X142675558Y-124469140D01*
X142713706Y-124583584D01*
X142713706Y-124659880D01*
X141912598Y-123629884D02*
X141912598Y-123782476D01*
X141950746Y-123858772D01*
X141988894Y-123896920D01*
X142103338Y-123973216D01*
X142255930Y-124011364D01*
X142561114Y-124011364D01*
X142637410Y-123973216D01*
X142675558Y-123935068D01*
X142713706Y-123858772D01*
X142713706Y-123706180D01*
X142675558Y-123629884D01*
X142637410Y-123591736D01*
X142561114Y-123553588D01*
X142370374Y-123553588D01*
X142294078Y-123591736D01*
X142255930Y-123629884D01*
X142217782Y-123706180D01*
X142217782Y-123858772D01*
X142255930Y-123935068D01*
X142294078Y-123973216D01*
X142370374Y-124011364D01*
X161793731Y-129862759D02*
X161824267Y-129771149D01*
X161824267Y-129618466D01*
X161793731Y-129557392D01*
X161763194Y-129526856D01*
X161702121Y-129496319D01*
X161641048Y-129496319D01*
X161579974Y-129526856D01*
X161549438Y-129557392D01*
X161518901Y-129618466D01*
X161488365Y-129740612D01*
X161457828Y-129801685D01*
X161427291Y-129832222D01*
X161366218Y-129862759D01*
X161305145Y-129862759D01*
X161244072Y-129832222D01*
X161213535Y-129801685D01*
X161182998Y-129740612D01*
X161182998Y-129587929D01*
X161213535Y-129496319D01*
X161793731Y-129252027D02*
X161824267Y-129160417D01*
X161824267Y-129007734D01*
X161793731Y-128946660D01*
X161763194Y-128916124D01*
X161702121Y-128885587D01*
X161641048Y-128885587D01*
X161579974Y-128916124D01*
X161549438Y-128946660D01*
X161518901Y-129007734D01*
X161488365Y-129129880D01*
X161457828Y-129190953D01*
X161427291Y-129221490D01*
X161366218Y-129252027D01*
X161305145Y-129252027D01*
X161244072Y-129221490D01*
X161213535Y-129190953D01*
X161182998Y-129129880D01*
X161182998Y-128977197D01*
X161213535Y-128885587D01*
X161579974Y-128610758D02*
X161579974Y-128122172D01*
X161182998Y-127541976D02*
X161182998Y-127664123D01*
X161213535Y-127725196D01*
X161244072Y-127755733D01*
X161335681Y-127816806D01*
X161457828Y-127847343D01*
X161702121Y-127847343D01*
X161763194Y-127816806D01*
X161793731Y-127786269D01*
X161824267Y-127725196D01*
X161824267Y-127603050D01*
X161793731Y-127541976D01*
X161763194Y-127511440D01*
X161702121Y-127480903D01*
X161549438Y-127480903D01*
X161488365Y-127511440D01*
X161457828Y-127541976D01*
X161427291Y-127603050D01*
X161427291Y-127725196D01*
X161457828Y-127786269D01*
X161488365Y-127816806D01*
X161549438Y-127847343D01*
X161182998Y-127083927D02*
X161182998Y-127022854D01*
X161213535Y-126961781D01*
X161244072Y-126931244D01*
X161305145Y-126900708D01*
X161427291Y-126870171D01*
X161579974Y-126870171D01*
X161702121Y-126900708D01*
X161763194Y-126931244D01*
X161793731Y-126961781D01*
X161824267Y-127022854D01*
X161824267Y-127083927D01*
X161793731Y-127145001D01*
X161763194Y-127175537D01*
X161702121Y-127206074D01*
X161579974Y-127236611D01*
X161427291Y-127236611D01*
X161305145Y-127206074D01*
X161244072Y-127175537D01*
X161213535Y-127145001D01*
X161182998Y-127083927D01*
X161182998Y-126473195D02*
X161182998Y-126412122D01*
X161213535Y-126351049D01*
X161244072Y-126320512D01*
X161305145Y-126289976D01*
X161427291Y-126259439D01*
X161579974Y-126259439D01*
X161702121Y-126289976D01*
X161763194Y-126320512D01*
X161793731Y-126351049D01*
X161824267Y-126412122D01*
X161824267Y-126473195D01*
X161793731Y-126534269D01*
X161763194Y-126564805D01*
X161702121Y-126595342D01*
X161579974Y-126625879D01*
X161427291Y-126625879D01*
X161305145Y-126595342D01*
X161244072Y-126564805D01*
X161213535Y-126534269D01*
X161182998Y-126473195D01*
X161182998Y-125862463D02*
X161182998Y-125801390D01*
X161213535Y-125740317D01*
X161244072Y-125709780D01*
X161305145Y-125679244D01*
X161427291Y-125648707D01*
X161579974Y-125648707D01*
X161702121Y-125679244D01*
X161763194Y-125709780D01*
X161793731Y-125740317D01*
X161824267Y-125801390D01*
X161824267Y-125862463D01*
X161793731Y-125923537D01*
X161763194Y-125954073D01*
X161702121Y-125984610D01*
X161579974Y-126015147D01*
X161427291Y-126015147D01*
X161305145Y-125984610D01*
X161244072Y-125954073D01*
X161213535Y-125923537D01*
X161182998Y-125862463D01*
X161182998Y-125251731D02*
X161182998Y-125190658D01*
X161213535Y-125129585D01*
X161244072Y-125099048D01*
X161305145Y-125068512D01*
X161427291Y-125037975D01*
X161579974Y-125037975D01*
X161702121Y-125068512D01*
X161763194Y-125099048D01*
X161793731Y-125129585D01*
X161824267Y-125190658D01*
X161824267Y-125251731D01*
X161793731Y-125312805D01*
X161763194Y-125343341D01*
X161702121Y-125373878D01*
X161579974Y-125404415D01*
X161427291Y-125404415D01*
X161305145Y-125373878D01*
X161244072Y-125343341D01*
X161213535Y-125312805D01*
X161182998Y-125251731D01*
X161579974Y-124763146D02*
X161579974Y-124274560D01*
X161182998Y-123847047D02*
X161182998Y-123785974D01*
X161213535Y-123724901D01*
X161244072Y-123694364D01*
X161305145Y-123663828D01*
X161427291Y-123633291D01*
X161579974Y-123633291D01*
X161702121Y-123663828D01*
X161763194Y-123694364D01*
X161793731Y-123724901D01*
X161824267Y-123785974D01*
X161824267Y-123847047D01*
X161793731Y-123908121D01*
X161763194Y-123938657D01*
X161702121Y-123969194D01*
X161579974Y-123999731D01*
X161427291Y-123999731D01*
X161305145Y-123969194D01*
X161244072Y-123938657D01*
X161213535Y-123908121D01*
X161182998Y-123847047D01*
X161182998Y-123236315D02*
X161182998Y-123175242D01*
X161213535Y-123114169D01*
X161244072Y-123083632D01*
X161305145Y-123053096D01*
X161427291Y-123022559D01*
X161579974Y-123022559D01*
X161702121Y-123053096D01*
X161763194Y-123083632D01*
X161793731Y-123114169D01*
X161824267Y-123175242D01*
X161824267Y-123236315D01*
X161793731Y-123297389D01*
X161763194Y-123327925D01*
X161702121Y-123358462D01*
X161579974Y-123388999D01*
X161427291Y-123388999D01*
X161305145Y-123358462D01*
X161244072Y-123327925D01*
X161213535Y-123297389D01*
X161182998Y-123236315D01*
X161457828Y-122656120D02*
X161427291Y-122717193D01*
X161396755Y-122747730D01*
X161335681Y-122778267D01*
X161305145Y-122778267D01*
X161244072Y-122747730D01*
X161213535Y-122717193D01*
X161182998Y-122656120D01*
X161182998Y-122533974D01*
X161213535Y-122472900D01*
X161244072Y-122442364D01*
X161305145Y-122411827D01*
X161335681Y-122411827D01*
X161396755Y-122442364D01*
X161427291Y-122472900D01*
X161457828Y-122533974D01*
X161457828Y-122656120D01*
X161488365Y-122717193D01*
X161518901Y-122747730D01*
X161579974Y-122778267D01*
X161702121Y-122778267D01*
X161763194Y-122747730D01*
X161793731Y-122717193D01*
X161824267Y-122656120D01*
X161824267Y-122533974D01*
X161793731Y-122472900D01*
X161763194Y-122442364D01*
X161702121Y-122411827D01*
X161579974Y-122411827D01*
X161518901Y-122442364D01*
X161488365Y-122472900D01*
X161457828Y-122533974D01*
X161579974Y-122136998D02*
X161579974Y-121648412D01*
X161793731Y-121373583D02*
X161824267Y-121312509D01*
X161824267Y-121190363D01*
X161793731Y-121129290D01*
X161732658Y-121098753D01*
X161702121Y-121098753D01*
X161641048Y-121129290D01*
X161610511Y-121190363D01*
X161610511Y-121281973D01*
X161579974Y-121343046D01*
X161518901Y-121373583D01*
X161488365Y-121373583D01*
X161427291Y-121343046D01*
X161396755Y-121281973D01*
X161396755Y-121190363D01*
X161427291Y-121129290D01*
X161396755Y-120915533D02*
X161396755Y-120671240D01*
X161182998Y-120823923D02*
X161732658Y-120823923D01*
X161793731Y-120793386D01*
X161824267Y-120732313D01*
X161824267Y-120671240D01*
X161793731Y-120213191D02*
X161824267Y-120274264D01*
X161824267Y-120396411D01*
X161793731Y-120457484D01*
X161732658Y-120488021D01*
X161488365Y-120488021D01*
X161427291Y-120457484D01*
X161396755Y-120396411D01*
X161396755Y-120274264D01*
X161427291Y-120213191D01*
X161488365Y-120182654D01*
X161549438Y-120182654D01*
X161610511Y-120488021D01*
X161396755Y-119907825D02*
X162038024Y-119907825D01*
X161427291Y-119907825D02*
X161396755Y-119846752D01*
X161396755Y-119724605D01*
X161427291Y-119663532D01*
X161457828Y-119632995D01*
X161518901Y-119602459D01*
X161702121Y-119602459D01*
X161763194Y-119632995D01*
X161793731Y-119663532D01*
X161824267Y-119724605D01*
X161824267Y-119846752D01*
X161793731Y-119907825D01*
X161824267Y-119052799D02*
X161182998Y-119052799D01*
X161793731Y-119052799D02*
X161824267Y-119113873D01*
X161824267Y-119236019D01*
X161793731Y-119297092D01*
X161763194Y-119327629D01*
X161702121Y-119358166D01*
X161518901Y-119358166D01*
X161457828Y-119327629D01*
X161427291Y-119297092D01*
X161396755Y-119236019D01*
X161396755Y-119113873D01*
X161427291Y-119052799D01*
X161824267Y-118747433D02*
X161396755Y-118747433D01*
X161182998Y-118747433D02*
X161213535Y-118777970D01*
X161244072Y-118747433D01*
X161213535Y-118716896D01*
X161182998Y-118747433D01*
X161244072Y-118747433D01*
X161824267Y-118442067D02*
X161396755Y-118442067D01*
X161518901Y-118442067D02*
X161457828Y-118411530D01*
X161427291Y-118380994D01*
X161396755Y-118319920D01*
X161396755Y-118258847D01*
D13*
X129968667Y-59142381D02*
X129968667Y-59856667D01*
X129921047Y-59999524D01*
X129825809Y-60094762D01*
X129682952Y-60142381D01*
X129587714Y-60142381D01*
X130587714Y-59570952D02*
X130492476Y-59523333D01*
X130444857Y-59475714D01*
X130397238Y-59380476D01*
X130397238Y-59332857D01*
X130444857Y-59237619D01*
X130492476Y-59190000D01*
X130587714Y-59142381D01*
X130778191Y-59142381D01*
X130873429Y-59190000D01*
X130921048Y-59237619D01*
X130968667Y-59332857D01*
X130968667Y-59380476D01*
X130921048Y-59475714D01*
X130873429Y-59523333D01*
X130778191Y-59570952D01*
X130587714Y-59570952D01*
X130492476Y-59618571D01*
X130444857Y-59666190D01*
X130397238Y-59761429D01*
X130397238Y-59951905D01*
X130444857Y-60047143D01*
X130492476Y-60094762D01*
X130587714Y-60142381D01*
X130778191Y-60142381D01*
X130873429Y-60094762D01*
X130921048Y-60047143D01*
X130968667Y-59951905D01*
X130968667Y-59761429D01*
X130921048Y-59666190D01*
X130873429Y-59618571D01*
X130778191Y-59570952D01*
M02*
