G04 #@! TF.FileFunction,Copper,L2,Bot,Signal*
%FSLAX46Y46*%
G04 Gerber Fmt 4.6, Leading zero omitted, Abs format (unit mm)*
G04 Created by KiCad (PCBNEW 4.0.7-e2-6376~58~ubuntu16.04.1) date Fri Jun  1 10:41:47 2018*
%MOMM*%
%LPD*%
G01*
G04 APERTURE LIST*
%ADD10C,0.100000*%
%ADD11R,1.700000X1.700000*%
%ADD12O,1.700000X1.700000*%
%ADD13R,1.727200X1.727200*%
%ADD14O,1.727200X1.727200*%
%ADD15C,1.422400*%
%ADD16C,2.514600*%
%ADD17R,0.900000X0.500000*%
%ADD18R,0.500000X0.900000*%
%ADD19R,0.600000X1.500000*%
%ADD20C,0.685800*%
%ADD21C,0.600000*%
%ADD22C,0.152400*%
%ADD23C,0.250000*%
G04 APERTURE END LIST*
D10*
D11*
X132842000Y-59690000D03*
D12*
X132842000Y-62230000D03*
D13*
X164630098Y-62382400D03*
D14*
X167170098Y-62382400D03*
X164630098Y-64922400D03*
X167170098Y-64922400D03*
X164630098Y-67462400D03*
X167170098Y-67462400D03*
X164630098Y-70002400D03*
X167170098Y-70002400D03*
X164630098Y-72542400D03*
X167170098Y-72542400D03*
X164630098Y-75082400D03*
X167170098Y-75082400D03*
X164630098Y-77622400D03*
X167170098Y-77622400D03*
X164630098Y-80162400D03*
X167170098Y-80162400D03*
X164630098Y-82702400D03*
X167170098Y-82702400D03*
X164630098Y-85242400D03*
X167170098Y-85242400D03*
X164630098Y-87782400D03*
X167170098Y-87782400D03*
X164630098Y-90322400D03*
X167170098Y-90322400D03*
X164630098Y-92862400D03*
X167170098Y-92862400D03*
X164630098Y-95402400D03*
X167170098Y-95402400D03*
X164630098Y-97942400D03*
X167170098Y-97942400D03*
X164630098Y-100482400D03*
X167170098Y-100482400D03*
X164630098Y-103022400D03*
X167170098Y-103022400D03*
X164630098Y-105562400D03*
X167170098Y-105562400D03*
X164630098Y-108102400D03*
X167170098Y-108102400D03*
X164630098Y-110642400D03*
X167170098Y-110642400D03*
X164630098Y-113182400D03*
X167170098Y-113182400D03*
X164630098Y-115722400D03*
X167170098Y-115722400D03*
X164630098Y-118262400D03*
X167170098Y-118262400D03*
D13*
X116370100Y-62382400D03*
D14*
X118910100Y-62382400D03*
X116370100Y-64922400D03*
X118910100Y-64922400D03*
X116370100Y-67462400D03*
X118910100Y-67462400D03*
X116370100Y-70002400D03*
X118910100Y-70002400D03*
X116370100Y-72542400D03*
X118910100Y-72542400D03*
X116370100Y-75082400D03*
X118910100Y-75082400D03*
X116370100Y-77622400D03*
X118910100Y-77622400D03*
X116370100Y-80162400D03*
X118910100Y-80162400D03*
X116370100Y-82702400D03*
X118910100Y-82702400D03*
X116370100Y-85242400D03*
X118910100Y-85242400D03*
X116370100Y-87782400D03*
X118910100Y-87782400D03*
X116370100Y-90322400D03*
X118910100Y-90322400D03*
X116370100Y-92862400D03*
X118910100Y-92862400D03*
X116370100Y-95402400D03*
X118910100Y-95402400D03*
X116370100Y-97942400D03*
X118910100Y-97942400D03*
X116370100Y-100482400D03*
X118910100Y-100482400D03*
X116370100Y-103022400D03*
X118910100Y-103022400D03*
X116370100Y-105562400D03*
X118910100Y-105562400D03*
X116370100Y-108102400D03*
X118910100Y-108102400D03*
X116370100Y-110642400D03*
X118910100Y-110642400D03*
X116370100Y-113182400D03*
X118910100Y-113182400D03*
X116370100Y-115722400D03*
X118910100Y-115722400D03*
X116370100Y-118262400D03*
X118910100Y-118262400D03*
D15*
X135255000Y-74549000D03*
X135255000Y-72517000D03*
X135255000Y-70485000D03*
X137287000Y-71501000D03*
X137287000Y-73533000D03*
X137287000Y-75565000D03*
X137287000Y-77597000D03*
X135255000Y-76581000D03*
D16*
X133400800Y-66192400D03*
X133400800Y-81889600D03*
D15*
X135255000Y-96456500D03*
X135255000Y-94424500D03*
X135255000Y-92392500D03*
X137287000Y-93408500D03*
X137287000Y-95440500D03*
X137287000Y-97472500D03*
X137287000Y-99504500D03*
X135255000Y-98488500D03*
D16*
X133400800Y-88099900D03*
X133400800Y-103797100D03*
D15*
X135255000Y-118364000D03*
X135255000Y-116332000D03*
X135255000Y-114300000D03*
X137287000Y-115316000D03*
X137287000Y-117348000D03*
X137287000Y-119380000D03*
X137287000Y-121412000D03*
X135255000Y-120396000D03*
D16*
X133400800Y-110007400D03*
X133400800Y-125704600D03*
D15*
X147955000Y-73660000D03*
X147955000Y-75692000D03*
X147955000Y-77724000D03*
X145923000Y-76708000D03*
X145923000Y-74676000D03*
X145923000Y-72644000D03*
X145923000Y-70612000D03*
X147955000Y-71628000D03*
D16*
X149809200Y-82016600D03*
X149809200Y-66319400D03*
D15*
X147955000Y-95440500D03*
X147955000Y-97472500D03*
X147955000Y-99504500D03*
X145923000Y-98488500D03*
X145923000Y-96456500D03*
X145923000Y-94424500D03*
X145923000Y-92392500D03*
X147955000Y-93408500D03*
D16*
X149809200Y-103797100D03*
X149809200Y-88099900D03*
D15*
X147955000Y-117348000D03*
X147955000Y-119380000D03*
X147955000Y-121412000D03*
X145923000Y-120396000D03*
X145923000Y-118364000D03*
X145923000Y-116332000D03*
X145923000Y-114300000D03*
X147955000Y-115316000D03*
D16*
X149809200Y-125704600D03*
X149809200Y-110007400D03*
D11*
X133096000Y-55626000D03*
D12*
X130556000Y-55626000D03*
X133096000Y-53086000D03*
X130556000Y-53086000D03*
X133096000Y-50546000D03*
X130556000Y-50546000D03*
X133096000Y-48006000D03*
X130556000Y-48006000D03*
X133096000Y-45466000D03*
X130556000Y-45466000D03*
D17*
X126492000Y-45260000D03*
X126492000Y-46760000D03*
X126492000Y-48260000D03*
X126491998Y-50697000D03*
X126491998Y-52197000D03*
X126491998Y-53697000D03*
X126491998Y-56134000D03*
X126491998Y-57634000D03*
X126491998Y-59134000D03*
X117094000Y-45260000D03*
X117094000Y-46760000D03*
X117094000Y-48260000D03*
X120396000Y-45260000D03*
X120396000Y-46760000D03*
X120396000Y-48260000D03*
X123444000Y-45260000D03*
X123444000Y-46760000D03*
X123444000Y-48260000D03*
X117094000Y-50697000D03*
X117094000Y-52197000D03*
X117094000Y-53697000D03*
X120181997Y-50697000D03*
X120181997Y-52197000D03*
X120181997Y-53697000D03*
X123359332Y-50697000D03*
X123359332Y-52197000D03*
X123359332Y-53697000D03*
X117094000Y-56134000D03*
X117094000Y-57634000D03*
X117094000Y-59134000D03*
X120226666Y-56134000D03*
X120226666Y-57634000D03*
X120226666Y-59134000D03*
X123359332Y-56134000D03*
X123359332Y-57634000D03*
X123359332Y-59134000D03*
X121666000Y-61008000D03*
X121666000Y-62508000D03*
X121666000Y-64008000D03*
X159339886Y-60222000D03*
X159339886Y-61722000D03*
X159339886Y-63222000D03*
X155443829Y-50812000D03*
X155443829Y-52312000D03*
X155443829Y-53812000D03*
X155443829Y-55529000D03*
X155443829Y-57029000D03*
X155443829Y-58529000D03*
X155443829Y-60246000D03*
X155443829Y-61746000D03*
X155443829Y-63246000D03*
X167132000Y-50812000D03*
X167132000Y-52312000D03*
X167132000Y-53812000D03*
X167132000Y-55529000D03*
X167132000Y-57029000D03*
X167132000Y-58529000D03*
X162814000Y-50812000D03*
X162814000Y-52312000D03*
X162814000Y-53812000D03*
X162814000Y-55529000D03*
X162814000Y-57029000D03*
X162814000Y-58529000D03*
X159339886Y-50812000D03*
X159339886Y-52312000D03*
X159339886Y-53812000D03*
X159339886Y-55529000D03*
X159339886Y-57029000D03*
X159339886Y-58529000D03*
D18*
X123976000Y-62484000D03*
X125476000Y-62484000D03*
X128294000Y-62484000D03*
X129794000Y-62484000D03*
D19*
X137109200Y-82212200D03*
X138379200Y-82212200D03*
X139649200Y-82212200D03*
X140919200Y-82212200D03*
X142189200Y-82212200D03*
X143459200Y-82212200D03*
X144729200Y-82212200D03*
X145999200Y-82212200D03*
X145999200Y-87612200D03*
X144729200Y-87612200D03*
X143459200Y-87612200D03*
X142189200Y-87612200D03*
X140919200Y-87612200D03*
X139649200Y-87612200D03*
X138379200Y-87612200D03*
X137109200Y-87612200D03*
X137109200Y-104165400D03*
X138379200Y-104165400D03*
X139649200Y-104165400D03*
X140919200Y-104165400D03*
X142189200Y-104165400D03*
X143459200Y-104165400D03*
X144729200Y-104165400D03*
X145999200Y-104165400D03*
X145999200Y-109565400D03*
X144729200Y-109565400D03*
X143459200Y-109565400D03*
X142189200Y-109565400D03*
X140919200Y-109565400D03*
X139649200Y-109565400D03*
X138379200Y-109565400D03*
X137109200Y-109565400D03*
D20*
X117725083Y-60790679D03*
X159042057Y-60960000D03*
X159042057Y-66285744D03*
X135153132Y-66161585D03*
X124206000Y-69850000D03*
X136906000Y-64770000D03*
X136652000Y-67310000D03*
X133794457Y-63236055D03*
X124460000Y-64770000D03*
X121917505Y-57847143D03*
X123698000Y-118110000D03*
X118110000Y-63500000D03*
X122402677Y-64960562D03*
X124968000Y-116078000D03*
X118618000Y-57658000D03*
D21*
X124734610Y-57865051D03*
X125984000Y-117094000D03*
X124864852Y-63225390D03*
D20*
X124460000Y-61468000D03*
X147066000Y-66548000D03*
X163068000Y-66040000D03*
X163068000Y-62230000D03*
X128524000Y-61468000D03*
D21*
X129963296Y-62803669D03*
D20*
X126784057Y-76010215D03*
X124460000Y-45974000D03*
X120661855Y-75267566D03*
X117856000Y-47244000D03*
X138176000Y-80518000D03*
X133019823Y-74414968D03*
X129032000Y-46228000D03*
X140970000Y-77470000D03*
X140970000Y-81026000D03*
X128549741Y-52812241D03*
X117874066Y-59965813D03*
X124777510Y-95304274D03*
X123380490Y-60198000D03*
X117856000Y-52578000D03*
X142580941Y-83699180D03*
X142748000Y-93218000D03*
X128079510Y-95618321D03*
X125476000Y-52578000D03*
X139305820Y-99718183D03*
X140130382Y-89728850D03*
X141478000Y-115316000D03*
D21*
X142227522Y-88963998D03*
D20*
X137668000Y-88900000D03*
X161734490Y-74277182D03*
X163759302Y-57150000D03*
X162306000Y-75692000D03*
X165862000Y-52324000D03*
X143700490Y-101092000D03*
X144780000Y-76708000D03*
X144272000Y-96520000D03*
X144309500Y-96595086D03*
X144526000Y-118364000D03*
X156400490Y-74677587D03*
X156400490Y-61725175D03*
X140779510Y-102871587D03*
X140208000Y-70866000D03*
X160210490Y-96158313D03*
X161226490Y-57351013D03*
X160782000Y-97028000D03*
X161544000Y-52324000D03*
X145796000Y-102362000D03*
D21*
X145054610Y-107696000D03*
D20*
X157619679Y-57539301D03*
X158242000Y-117094000D03*
X156972000Y-118872000D03*
X156718000Y-52324000D03*
X142516239Y-110768000D03*
X142494000Y-120396000D03*
X126492000Y-58420000D03*
X154428807Y-65087502D03*
X154432000Y-63246000D03*
X155448000Y-54610000D03*
X155448000Y-62491302D03*
X155448000Y-59182000D03*
X127530740Y-53878367D03*
X125920490Y-54591291D03*
D21*
X126492000Y-49022000D03*
D20*
X127915303Y-83620569D03*
X129875045Y-59483970D03*
X125462974Y-83680321D03*
X126415759Y-64545365D03*
X127821514Y-60516425D03*
X129031477Y-58673477D03*
X126746000Y-93891132D03*
X129800811Y-58340041D03*
X128936521Y-95313510D03*
X128130201Y-63813118D03*
X128233680Y-59768472D03*
X128455602Y-57900269D03*
X120625601Y-80676613D03*
X124369989Y-81419679D03*
X132685493Y-63900722D03*
X123072893Y-65944245D03*
X127290830Y-59867600D03*
X125222000Y-100330000D03*
X125732349Y-63429261D03*
X127762000Y-57150000D03*
X136000966Y-65950093D03*
X121727990Y-74258045D03*
X118110000Y-45720000D03*
X131318000Y-73152000D03*
X127508000Y-43942000D03*
X120584978Y-74422000D03*
X118110000Y-51054000D03*
X142176490Y-80835510D03*
X142176490Y-78740000D03*
X131563067Y-78110077D03*
X128308000Y-44418695D03*
X123329679Y-85381317D03*
X121158000Y-50800000D03*
X148082000Y-87376000D03*
X148082000Y-83566000D03*
X162052000Y-79756000D03*
X122087341Y-85732644D03*
X118681510Y-56307361D03*
X121418841Y-56750005D03*
X121995215Y-84899510D03*
X125867564Y-86075595D03*
X124260694Y-50975795D03*
X127620197Y-86118754D03*
X129366419Y-63396384D03*
X161658321Y-70104000D03*
X161374524Y-51323218D03*
X161607510Y-60307041D03*
X161419772Y-71186955D03*
X166116000Y-60198000D03*
X166213000Y-55529000D03*
X159905679Y-77494912D03*
X160540000Y-50812000D03*
X124711254Y-77533510D03*
X124206000Y-56388000D03*
X141846321Y-89662000D03*
X141224000Y-83566000D03*
X121098235Y-81368868D03*
X159572185Y-83629510D03*
X160381155Y-55271393D03*
X120904000Y-84328000D03*
X140462000Y-110998000D03*
X139446000Y-84074000D03*
X137096490Y-91997274D03*
X143700490Y-102668987D03*
X135837013Y-83756490D03*
X143192490Y-92078669D03*
X141846321Y-90932000D03*
X141478000Y-102108000D03*
X139382521Y-102449267D03*
X139636490Y-91186000D03*
X139192000Y-88646000D03*
X138684000Y-90170000D03*
X158496000Y-92456000D03*
X158242000Y-50800000D03*
X157924490Y-90456938D03*
X157924490Y-55697958D03*
X121158000Y-91440000D03*
X121158000Y-87122000D03*
X131744676Y-93586321D03*
X132080000Y-105664000D03*
X131352716Y-94776724D03*
X131318000Y-106426000D03*
X122593185Y-62058111D03*
X123698000Y-80772000D03*
X127444490Y-55401553D03*
X126492000Y-45709889D03*
X127042079Y-50849639D03*
X122639921Y-55468375D03*
X126238000Y-49784000D03*
D21*
X117073390Y-54356000D03*
D20*
X117094000Y-49022000D03*
D21*
X117094000Y-58420000D03*
X122447607Y-59008798D03*
D20*
X122174000Y-48260000D03*
D21*
X122194610Y-51562000D03*
D20*
X123444000Y-58420000D03*
D21*
X123190000Y-53204211D03*
D20*
X123444000Y-49022000D03*
X138239510Y-102362000D03*
X138684000Y-67564000D03*
X150355605Y-68681622D03*
X154432000Y-60452000D03*
X162814000Y-57774302D03*
X162814000Y-54610000D03*
D22*
X136505423Y-65646312D02*
X145318488Y-65646312D01*
X146880553Y-67208377D02*
X148499045Y-67208378D01*
X136187922Y-65328811D02*
X136505423Y-65646312D01*
X152888816Y-66069366D02*
X158340746Y-66069366D01*
X158557124Y-66285744D02*
X159042057Y-66285744D01*
X145318488Y-65646312D02*
X146880553Y-67208377D01*
X158340746Y-66069366D02*
X158557124Y-66285744D01*
X149095967Y-67805301D02*
X151152881Y-67805301D01*
X148499045Y-67208378D02*
X149095967Y-67805301D01*
X135202534Y-65328811D02*
X136187922Y-65328811D01*
X135126991Y-65404354D02*
X135202534Y-65328811D01*
X151152881Y-67805301D02*
X152888816Y-66069366D01*
X120530219Y-60474619D02*
X118526076Y-60474619D01*
X118526076Y-60474619D02*
X118210016Y-60790679D01*
X118210016Y-60790679D02*
X117725083Y-60790679D01*
X121666000Y-61008000D02*
X121063600Y-61008000D01*
X121063600Y-61008000D02*
X120530219Y-60474619D01*
X159339886Y-60222000D02*
X159339886Y-60662171D01*
X159339886Y-60662171D02*
X159042057Y-60960000D01*
X134429136Y-64706499D02*
X135126991Y-65404354D01*
X131608067Y-65785999D02*
X132687567Y-64706499D01*
X132687567Y-64706499D02*
X134429136Y-64706499D01*
X124759129Y-65785999D02*
X131608067Y-65785999D01*
X124029382Y-66515746D02*
X124759129Y-65785999D01*
X118910100Y-64922400D02*
X120503446Y-66515746D01*
X120503446Y-66515746D02*
X124029382Y-66515746D01*
X135126991Y-65404354D02*
X135153132Y-65430495D01*
X135153132Y-65676652D02*
X135153132Y-66161585D01*
X135153132Y-65430495D02*
X135153132Y-65676652D01*
X118910100Y-64922400D02*
X117688786Y-64922400D01*
X117688786Y-64922400D02*
X116370100Y-64922400D01*
D23*
X121666000Y-61008000D02*
X121466000Y-61008000D01*
D22*
X124206000Y-69850000D02*
X119062500Y-69850000D01*
X119062500Y-69850000D02*
X118910100Y-70002400D01*
X124206000Y-69850000D02*
X127762000Y-69850000D01*
X128524000Y-70612000D02*
X130556000Y-70612000D01*
X132842000Y-68326000D02*
X133591704Y-68326000D01*
X134607704Y-67310000D02*
X136652000Y-67310000D01*
X133591704Y-68326000D02*
X134607704Y-67310000D01*
X130556000Y-70612000D02*
X132842000Y-68326000D01*
X127762000Y-69850000D02*
X128524000Y-70612000D01*
X116370100Y-70002400D02*
X117591414Y-70002400D01*
X117591414Y-70002400D02*
X118910100Y-70002400D01*
X136906000Y-64770000D02*
X148590000Y-64770000D01*
X148844000Y-64516000D02*
X154178000Y-64516000D01*
X148590000Y-64770000D02*
X148844000Y-64516000D01*
X154178000Y-64516000D02*
X154667272Y-64026728D01*
X154667272Y-64026728D02*
X155383998Y-64026728D01*
X136906000Y-64770000D02*
X136906000Y-64516000D01*
X133216359Y-63329220D02*
X133309524Y-63236055D01*
X133309524Y-63236055D02*
X133794457Y-63236055D01*
X125875747Y-65024000D02*
X125968614Y-65116867D01*
X132411171Y-63329220D02*
X133216359Y-63329220D01*
X130623524Y-65116867D02*
X132411171Y-63329220D01*
X125968614Y-65116867D02*
X130623524Y-65116867D01*
X125875747Y-65024000D02*
X124714000Y-65024000D01*
X124714000Y-65024000D02*
X124460000Y-64770000D01*
X125875747Y-65024000D02*
X124097747Y-63246000D01*
X122366000Y-64008000D02*
X121666000Y-64008000D01*
X123914000Y-63246000D02*
X123152000Y-64008000D01*
X123152000Y-64008000D02*
X122366000Y-64008000D01*
X124097747Y-63246000D02*
X123914000Y-63246000D01*
X123976000Y-63184000D02*
X123914000Y-63246000D01*
X158335158Y-64026728D02*
X155808262Y-64026728D01*
X155808262Y-64026728D02*
X155383998Y-64026728D01*
X159339886Y-63222000D02*
X159139886Y-63222000D01*
X159139886Y-63222000D02*
X158335158Y-64026728D01*
X123976000Y-63184000D02*
X123976000Y-62484000D01*
X121704362Y-57634000D02*
X121917505Y-57847143D01*
X120226666Y-57634000D02*
X121704362Y-57634000D01*
X123698000Y-118110000D02*
X135001000Y-118110000D01*
X135001000Y-118110000D02*
X135255000Y-118364000D01*
X118110000Y-63500000D02*
X119963448Y-63500000D01*
X119963448Y-63500000D02*
X121424010Y-64960562D01*
X121424010Y-64960562D02*
X122402677Y-64960562D01*
X124968000Y-116078000D02*
X135001000Y-116078000D01*
X135001000Y-116078000D02*
X135255000Y-116332000D01*
X117720400Y-57658000D02*
X118618000Y-57658000D01*
X117094000Y-57634000D02*
X117696400Y-57634000D01*
X117696400Y-57634000D02*
X117720400Y-57658000D01*
X124503559Y-57634000D02*
X124734610Y-57865051D01*
X123359332Y-57634000D02*
X124503559Y-57634000D01*
X125984000Y-117094000D02*
X126283999Y-117393999D01*
X126283999Y-117393999D02*
X137241001Y-117393999D01*
X137241001Y-117393999D02*
X137287000Y-117348000D01*
D23*
X125476000Y-62684000D02*
X124934610Y-63225390D01*
X125476000Y-62484000D02*
X125476000Y-62684000D01*
X124934610Y-63225390D02*
X124864852Y-63225390D01*
D22*
X147066000Y-66548000D02*
X149580600Y-66548000D01*
X149580600Y-66548000D02*
X149809200Y-66319400D01*
X163068000Y-66040000D02*
X162525865Y-65497865D01*
X159202952Y-65497865D02*
X159003716Y-65697101D01*
X162525865Y-65497865D02*
X159202952Y-65497865D01*
X159003716Y-65697101D02*
X151218899Y-65697101D01*
X151218899Y-65697101D02*
X150596600Y-66319400D01*
X150596600Y-66319400D02*
X149809200Y-66319400D01*
X149809200Y-66319400D02*
X150342600Y-66319400D01*
X150342600Y-66319400D02*
X150876000Y-65786000D01*
X124460000Y-61468000D02*
X123975067Y-61468000D01*
X123975067Y-61468000D02*
X123956466Y-61486601D01*
X123956466Y-61486601D02*
X119805899Y-61486601D01*
X119805899Y-61486601D02*
X118910100Y-62382400D01*
X116370100Y-118262400D02*
X117591414Y-118262400D01*
X117591414Y-118262400D02*
X118910100Y-118262400D01*
X116370100Y-115722400D02*
X117591414Y-115722400D01*
X117591414Y-115722400D02*
X118910100Y-115722400D01*
X143002000Y-77724000D02*
X140843000Y-75565000D01*
X140843000Y-75565000D02*
X137287000Y-75565000D01*
X147955000Y-77724000D02*
X143002000Y-77724000D01*
X164630098Y-62382400D02*
X163220400Y-62382400D01*
X163220400Y-62382400D02*
X163068000Y-62230000D01*
X164630098Y-62382400D02*
X167170098Y-62382400D01*
X133400800Y-125704600D02*
X149809200Y-125704600D01*
X128524000Y-61468000D02*
X128866899Y-61125101D01*
X131737101Y-61125101D02*
X131992001Y-61380001D01*
X128866899Y-61125101D02*
X131737101Y-61125101D01*
X131992001Y-61380001D02*
X132842000Y-62230000D01*
D23*
X145999200Y-104165400D02*
X149440900Y-104165400D01*
X149440900Y-104165400D02*
X149809200Y-103797100D01*
X149613600Y-82212200D02*
X149809200Y-82016600D01*
X145999200Y-82212200D02*
X149613600Y-82212200D01*
X116370100Y-62382400D02*
X117483700Y-62382400D01*
X117483700Y-62382400D02*
X118910100Y-62382400D01*
X129794000Y-62484000D02*
X129868232Y-62484000D01*
X129963296Y-62579064D02*
X129963296Y-62803669D01*
X129868232Y-62484000D02*
X129963296Y-62579064D01*
D22*
X127268990Y-76010215D02*
X126784057Y-76010215D01*
X135255000Y-74549000D02*
X133793785Y-76010215D01*
X133793785Y-76010215D02*
X127268990Y-76010215D01*
X120396000Y-46760000D02*
X120998400Y-46760000D01*
X120998400Y-46760000D02*
X121784400Y-45974000D01*
X121784400Y-45974000D02*
X124460000Y-45974000D01*
X130663423Y-75298312D02*
X130632677Y-75267566D01*
X130632677Y-75267566D02*
X121146788Y-75267566D01*
X135255000Y-72517000D02*
X133901178Y-72517000D01*
X121146788Y-75267566D02*
X120661855Y-75267566D01*
X133901178Y-72517000D02*
X132194312Y-74223866D01*
X132194312Y-74223866D02*
X132194312Y-74822577D01*
X131718577Y-75298312D02*
X130663423Y-75298312D01*
X132194312Y-74822577D02*
X131718577Y-75298312D01*
X117602000Y-47244000D02*
X117856000Y-47244000D01*
X117094000Y-46760000D02*
X117118000Y-46760000D01*
X117118000Y-46760000D02*
X117602000Y-47244000D01*
X138176000Y-80518000D02*
X138176000Y-82009000D01*
X138176000Y-82009000D02*
X138379200Y-82212200D01*
X133362722Y-74072069D02*
X133019823Y-74414968D01*
X133901791Y-73533000D02*
X133362722Y-74072069D01*
X137287000Y-73533000D02*
X133901791Y-73533000D01*
X127454601Y-46281399D02*
X128978601Y-46281399D01*
X128978601Y-46281399D02*
X129032000Y-46228000D01*
X125380518Y-46760000D02*
X125859119Y-46281399D01*
X123444000Y-46760000D02*
X125380518Y-46760000D01*
X125859119Y-46281399D02*
X127454601Y-46281399D01*
X127454601Y-46281399D02*
X127508000Y-46228000D01*
X140970000Y-77470000D02*
X137414000Y-77470000D01*
X137414000Y-77470000D02*
X137287000Y-77597000D01*
X140919200Y-81076800D02*
X140970000Y-81026000D01*
X140919200Y-82212200D02*
X140919200Y-81076800D01*
X125207316Y-53155140D02*
X128206842Y-53155140D01*
X120784397Y-52197000D02*
X121262998Y-52675601D01*
X121262998Y-52675601D02*
X124727777Y-52675601D01*
X124727777Y-52675601D02*
X125207316Y-53155140D01*
X120181997Y-52197000D02*
X120784397Y-52197000D01*
X128206842Y-53155140D02*
X128549741Y-52812241D01*
X123380490Y-60198000D02*
X122895557Y-60198000D01*
X122895557Y-60198000D02*
X122663370Y-59965813D01*
X122663370Y-59965813D02*
X118358999Y-59965813D01*
X118358999Y-59965813D02*
X117874066Y-59965813D01*
X125262443Y-95304274D02*
X124777510Y-95304274D01*
X130934768Y-94386433D02*
X127096523Y-94386433D01*
X126178682Y-95304274D02*
X125262443Y-95304274D01*
X131846324Y-94424500D02*
X131592322Y-94170498D01*
X131592322Y-94170498D02*
X131150702Y-94170498D01*
X131150702Y-94170498D02*
X130934768Y-94386433D01*
X135255000Y-94424500D02*
X131846324Y-94424500D01*
X127096523Y-94386433D02*
X126178682Y-95304274D01*
X117094000Y-52197000D02*
X117475000Y-52197000D01*
X117475000Y-52197000D02*
X117856000Y-52578000D01*
X143459200Y-82212200D02*
X143459200Y-82662200D01*
X143459200Y-82662200D02*
X142580941Y-83540459D01*
X142580941Y-83540459D02*
X142580941Y-83699180D01*
X142748000Y-93218000D02*
X137477500Y-93218000D01*
X137477500Y-93218000D02*
X137287000Y-93408500D01*
X128422409Y-95961220D02*
X128079510Y-95618321D01*
X129134635Y-95961220D02*
X128422409Y-95961220D01*
X137287000Y-95440500D02*
X129655355Y-95440500D01*
X129655355Y-95440500D02*
X129134635Y-95961220D01*
X123359332Y-52197000D02*
X125095000Y-52197000D01*
X125095000Y-52197000D02*
X125476000Y-52578000D01*
X139092137Y-99504500D02*
X139305820Y-99718183D01*
X137287000Y-99504500D02*
X139092137Y-99504500D01*
X145150323Y-90307677D02*
X140709209Y-90307677D01*
X140709209Y-90307677D02*
X140473281Y-90071749D01*
X140473281Y-90071749D02*
X140130382Y-89728850D01*
X145288000Y-90170000D02*
X145150323Y-90307677D01*
X145288000Y-88621000D02*
X145288000Y-90170000D01*
X144729200Y-88062200D02*
X145288000Y-88621000D01*
X144729200Y-87612200D02*
X144729200Y-88062200D01*
X141478000Y-115316000D02*
X137287000Y-115316000D01*
D23*
X142189200Y-88925676D02*
X142227522Y-88963998D01*
X142189200Y-87612200D02*
X142189200Y-88925676D01*
D22*
X138379200Y-87612200D02*
X138379200Y-88062200D01*
X137668000Y-88773400D02*
X137668000Y-88900000D01*
X138379200Y-88062200D02*
X137668000Y-88773400D01*
X161117308Y-73660000D02*
X161391591Y-73934283D01*
X147955000Y-73660000D02*
X161117308Y-73660000D01*
X161391591Y-73934283D02*
X161734490Y-74277182D01*
X167132000Y-57029000D02*
X163880302Y-57029000D01*
X163880302Y-57029000D02*
X163759302Y-57150000D01*
X162306000Y-75692000D02*
X147955000Y-75692000D01*
X167132000Y-52312000D02*
X165874000Y-52312000D01*
X165874000Y-52312000D02*
X165862000Y-52324000D01*
D23*
X167132000Y-52312000D02*
X166932000Y-52312000D01*
D22*
X138379200Y-104165400D02*
X138379200Y-103263000D01*
X138379200Y-103263000D02*
X138811011Y-102831189D01*
X138811011Y-102831189D02*
X138811011Y-102104965D01*
X138811011Y-102104965D02*
X139823976Y-101092000D01*
X143215557Y-101092000D02*
X143700490Y-101092000D01*
X139823976Y-101092000D02*
X143215557Y-101092000D01*
X145923000Y-76708000D02*
X144780000Y-76708000D01*
X145923000Y-96456500D02*
X144448086Y-96456500D01*
X144448086Y-96456500D02*
X144309500Y-96595086D01*
X144009266Y-96520000D02*
X144272000Y-96520000D01*
X144272000Y-96520000D02*
X145859500Y-96520000D01*
X145923000Y-118364000D02*
X144526000Y-118364000D01*
X156398903Y-74676000D02*
X156400490Y-74677587D01*
X145923000Y-74676000D02*
X156398903Y-74676000D01*
X156379665Y-61746000D02*
X156400490Y-61725175D01*
X155443829Y-61746000D02*
X156379665Y-61746000D01*
X140919200Y-104165400D02*
X140919200Y-103011277D01*
X140919200Y-103011277D02*
X140779510Y-102871587D01*
X145923000Y-70612000D02*
X140462000Y-70612000D01*
X140462000Y-70612000D02*
X140208000Y-70866000D01*
X159492677Y-95440500D02*
X159867591Y-95815414D01*
X147955000Y-95440500D02*
X159492677Y-95440500D01*
X159867591Y-95815414D02*
X160210490Y-96158313D01*
X162814000Y-57029000D02*
X161548503Y-57029000D01*
X161548503Y-57029000D02*
X161226490Y-57351013D01*
X160782000Y-97028000D02*
X148399500Y-97028000D01*
X148399500Y-97028000D02*
X147955000Y-97472500D01*
X162814000Y-52312000D02*
X161556000Y-52312000D01*
X161556000Y-52312000D02*
X161544000Y-52324000D01*
D23*
X162814000Y-52312000D02*
X162614000Y-52312000D01*
D22*
X143459200Y-103715400D02*
X143459200Y-104165400D01*
X143006800Y-102516853D02*
X143006800Y-103263000D01*
X143504552Y-102019101D02*
X143006800Y-102516853D01*
X143006800Y-103263000D02*
X143459200Y-103715400D01*
X145453101Y-102019101D02*
X143504552Y-102019101D01*
X145796000Y-102362000D02*
X145453101Y-102019101D01*
D23*
X144729200Y-109565400D02*
X144729200Y-108021410D01*
X144754611Y-107995999D02*
X145054610Y-107696000D01*
X144729200Y-108021410D02*
X144754611Y-107995999D01*
D22*
X157962578Y-57196402D02*
X157619679Y-57539301D01*
X158129980Y-57029000D02*
X157962578Y-57196402D01*
X159339886Y-57029000D02*
X158129980Y-57029000D01*
X158242000Y-117094000D02*
X148209000Y-117094000D01*
X148209000Y-117094000D02*
X147955000Y-117348000D01*
X156972000Y-118872000D02*
X148463000Y-118872000D01*
X148463000Y-118872000D02*
X147955000Y-119380000D01*
X159339886Y-52312000D02*
X156730000Y-52312000D01*
X156730000Y-52312000D02*
X156718000Y-52324000D01*
X142489400Y-110768000D02*
X142516239Y-110768000D01*
X142189200Y-110467800D02*
X142489400Y-110768000D01*
X142189200Y-109565400D02*
X142189200Y-110467800D01*
X145923000Y-120396000D02*
X142494000Y-120396000D01*
D23*
X139852400Y-112268000D02*
X143891000Y-112268000D01*
X143891000Y-112268000D02*
X145923000Y-114300000D01*
X138379200Y-110794800D02*
X139852400Y-112268000D01*
X138379200Y-109565400D02*
X138379200Y-110794800D01*
D22*
X126491998Y-58420002D02*
X126492000Y-58420000D01*
X126491998Y-58715291D02*
X126491998Y-58420002D01*
X153943874Y-65087502D02*
X154428807Y-65087502D01*
X148716256Y-65074811D02*
X148970255Y-64820811D01*
X137160000Y-65341501D02*
X137426691Y-65074810D01*
X136314178Y-65024000D02*
X136631679Y-65341501D01*
X148970255Y-64820811D02*
X153677183Y-64820811D01*
X135204933Y-65024000D02*
X136314178Y-65024000D01*
X134823189Y-64642256D02*
X135204933Y-65024000D01*
X134823189Y-62673589D02*
X134823189Y-64642256D01*
X136631679Y-65341501D02*
X137160000Y-65341501D01*
X137426691Y-65074810D02*
X148716256Y-65074811D01*
X153677183Y-64820811D02*
X153943874Y-65087502D01*
X132842000Y-60692400D02*
X134823189Y-62673589D01*
X132842000Y-59690000D02*
X132842000Y-60692400D01*
X154432000Y-63246000D02*
X155443829Y-63246000D01*
X155443829Y-53812000D02*
X155443829Y-54605829D01*
X155443829Y-54605829D02*
X155448000Y-54610000D01*
X155448000Y-62491302D02*
X155448000Y-63241829D01*
X155448000Y-63241829D02*
X155443829Y-63246000D01*
X155443829Y-58529000D02*
X155443829Y-59177829D01*
X155443829Y-59177829D02*
X155448000Y-59182000D01*
X131839600Y-59690000D02*
X132842000Y-59690000D01*
X131474128Y-60055472D02*
X131839600Y-59690000D01*
X129600723Y-60055472D02*
X131474128Y-60055472D01*
X128679251Y-59134000D02*
X129600723Y-60055472D01*
X126491998Y-59134000D02*
X128679251Y-59134000D01*
X126491998Y-53697000D02*
X126491998Y-54099400D01*
X127349373Y-53697000D02*
X127530740Y-53878367D01*
X126491998Y-53697000D02*
X127349373Y-53697000D01*
X126491998Y-59134000D02*
X126491998Y-58715291D01*
X126000107Y-54591291D02*
X125920490Y-54591291D01*
X126491998Y-54099400D02*
X126000107Y-54591291D01*
X126491998Y-59134000D02*
X126491998Y-58928002D01*
X126491998Y-58928002D02*
X126492000Y-58928000D01*
D23*
X126492000Y-48260000D02*
X126492000Y-49022000D01*
D22*
X117462301Y-84150199D02*
X119734868Y-84150199D01*
X119734868Y-84150199D02*
X120776256Y-83108811D01*
X120776256Y-83108811D02*
X127403545Y-83108811D01*
X116370100Y-85242400D02*
X117462301Y-84150199D01*
X127403545Y-83108811D02*
X127572404Y-83277670D01*
X127572404Y-83277670D02*
X127915303Y-83620569D01*
X130240430Y-59483970D02*
X129875045Y-59483970D01*
X133096000Y-56628400D02*
X130240430Y-59483970D01*
X133096000Y-55626000D02*
X133096000Y-56628400D01*
X119073734Y-85242400D02*
X120635813Y-83680321D01*
X124978041Y-83680321D02*
X125462974Y-83680321D01*
X120635813Y-83680321D02*
X124978041Y-83680321D01*
X118910100Y-85242400D02*
X119073734Y-85242400D01*
X126415759Y-64060432D02*
X126415759Y-64545365D01*
X127821514Y-60516425D02*
X126415759Y-61922180D01*
X126415759Y-61922180D02*
X126415759Y-64060432D01*
X129031477Y-58166523D02*
X129031477Y-58673477D01*
X129706001Y-57491999D02*
X129031477Y-58166523D01*
X130556000Y-55626000D02*
X129706001Y-56475999D01*
X129706001Y-56475999D02*
X129706001Y-57491999D01*
X120421368Y-93891132D02*
X126261067Y-93891132D01*
X118910100Y-95402400D02*
X120421368Y-93891132D01*
X126261067Y-93891132D02*
X126746000Y-93891132D01*
X133096000Y-53086000D02*
X132017399Y-54164601D01*
X130143710Y-57997142D02*
X129800811Y-58340041D01*
X132017399Y-56123453D02*
X130143710Y-57997142D01*
X132017399Y-54164601D02*
X132017399Y-56123453D01*
X125700039Y-96850199D02*
X127503427Y-95046811D01*
X117462301Y-96850199D02*
X125700039Y-96850199D01*
X127503427Y-95046811D02*
X128669822Y-95046811D01*
X116370100Y-97942400D02*
X117462301Y-96850199D01*
X128669822Y-95046811D02*
X128936521Y-95313510D01*
X128576579Y-60111371D02*
X128576579Y-60569599D01*
X127787302Y-63470219D02*
X128130201Y-63813118D01*
X127787302Y-61358876D02*
X127787302Y-63470219D01*
X128233680Y-59768472D02*
X128576579Y-60111371D01*
X128576579Y-60569599D02*
X127787302Y-61358876D01*
X128455602Y-57415336D02*
X128455602Y-57900269D01*
X128455602Y-56130068D02*
X128455602Y-57415336D01*
X130556000Y-54029670D02*
X128455602Y-56130068D01*
X130556000Y-53086000D02*
X130556000Y-54029670D01*
X122509680Y-80676613D02*
X121110534Y-80676613D01*
X123252746Y-81419679D02*
X122509680Y-80676613D01*
X124369989Y-81419679D02*
X123252746Y-81419679D01*
X121110534Y-80676613D02*
X120625601Y-80676613D01*
X123595460Y-65421678D02*
X131164537Y-65421678D01*
X123072893Y-65944245D02*
X123595460Y-65421678D01*
X132342594Y-64243621D02*
X132685493Y-63900722D01*
X131164537Y-65421678D02*
X132342594Y-64243621D01*
X126075248Y-61083182D02*
X126947931Y-60210499D01*
X126947931Y-60210499D02*
X127290830Y-59867600D01*
X126075248Y-63086362D02*
X126075248Y-61083182D01*
X125732349Y-63429261D02*
X126075248Y-63086362D01*
X127762000Y-56665067D02*
X127762000Y-57150000D01*
X127762000Y-56392604D02*
X127762000Y-56665067D01*
X129477399Y-54677205D02*
X127762000Y-56392604D01*
X129477399Y-51624601D02*
X129477399Y-54677205D01*
X130556000Y-50546000D02*
X129477399Y-51624601D01*
X125222000Y-100330000D02*
X124282199Y-99390199D01*
X124282199Y-99390199D02*
X117462301Y-99390199D01*
X117462301Y-99390199D02*
X117233699Y-99618801D01*
X117233699Y-99618801D02*
X116370100Y-100482400D01*
X136343865Y-66292992D02*
X136000966Y-65950093D01*
X145534101Y-66292992D02*
X136343865Y-66292992D01*
X152993658Y-66395591D02*
X151279137Y-68110112D01*
X154346341Y-66395591D02*
X152993658Y-66395591D01*
X151279137Y-68110112D02*
X148969711Y-68110112D01*
X148372789Y-67513189D02*
X147833292Y-67513189D01*
X147833292Y-67513189D02*
X146754297Y-67513187D01*
X146754297Y-67513187D02*
X145534101Y-66292992D01*
X156124339Y-68173589D02*
X154346341Y-66395591D01*
X156378340Y-68173589D02*
X156124339Y-68173589D01*
X163766499Y-69138801D02*
X161663375Y-69138801D01*
X160799776Y-70002400D02*
X158207151Y-70002400D01*
X148969711Y-68110112D02*
X148372789Y-67513189D01*
X161663375Y-69138801D02*
X160799776Y-70002400D01*
X164630098Y-70002400D02*
X163766499Y-69138801D01*
X158207151Y-70002400D02*
X156378340Y-68173589D01*
X161694094Y-71758457D02*
X161145450Y-71758457D01*
X162357950Y-71094601D02*
X161694094Y-71758457D01*
X150533402Y-71094601D02*
X148933234Y-69494433D01*
X133757478Y-69435633D02*
X128935066Y-74258045D01*
X134551383Y-68935577D02*
X134051328Y-69435633D01*
X143334376Y-68935577D02*
X134551383Y-68935577D01*
X147525376Y-69062577D02*
X143461376Y-69062577D01*
X143461376Y-69062577D02*
X143334376Y-68935577D01*
X160481594Y-71094601D02*
X150533402Y-71094601D01*
X147957232Y-69494433D02*
X147525376Y-69062577D01*
X148933234Y-69494433D02*
X147957232Y-69494433D01*
X167170098Y-70002400D02*
X166077897Y-71094601D01*
X128935066Y-74258045D02*
X122212923Y-74258045D01*
X161145450Y-71758457D02*
X160481594Y-71094601D01*
X166077897Y-71094601D02*
X162357950Y-71094601D01*
X134051328Y-69435633D02*
X133757478Y-69435633D01*
X122212923Y-74258045D02*
X121727990Y-74258045D01*
X117094000Y-45260000D02*
X117650000Y-45260000D01*
X117650000Y-45260000D02*
X118110000Y-45720000D01*
X134366000Y-70104000D02*
X134366000Y-69983095D01*
X131318000Y-73152000D02*
X134366000Y-70104000D01*
X147272864Y-69672199D02*
X147704720Y-70104055D01*
X143081864Y-69545199D02*
X143208864Y-69672199D01*
X143208864Y-69672199D02*
X147272864Y-69672199D01*
X134366000Y-69983095D02*
X134803895Y-69545199D01*
X134803895Y-69545199D02*
X143081864Y-69545199D01*
X147704720Y-70104055D02*
X148680722Y-70104055D01*
X148680722Y-70104055D02*
X151119067Y-72542400D01*
X151119067Y-72542400D02*
X163408784Y-72542400D01*
X163408784Y-72542400D02*
X164630098Y-72542400D01*
X122316400Y-43942000D02*
X127508000Y-43942000D01*
X120396000Y-45260000D02*
X120998400Y-45260000D01*
X120998400Y-45260000D02*
X122316400Y-43942000D01*
X167170098Y-72542400D02*
X166027110Y-71399412D01*
X160355338Y-71399412D02*
X150407146Y-71399412D01*
X150407146Y-71399412D02*
X148806978Y-69799244D01*
X143335120Y-69367388D02*
X143208120Y-69240388D01*
X134677640Y-69240388D02*
X134177584Y-69740444D01*
X121483372Y-74829546D02*
X121075826Y-74422000D01*
X133883734Y-69740444D02*
X128859279Y-74764899D01*
X166027110Y-71399412D02*
X162484206Y-71399412D01*
X122002311Y-74829546D02*
X121483372Y-74829546D01*
X161019194Y-72063268D02*
X160355338Y-71399412D01*
X134177584Y-69740444D02*
X133883734Y-69740444D01*
X148806978Y-69799244D02*
X147830976Y-69799244D01*
X121075826Y-74422000D02*
X121069911Y-74422000D01*
X161820350Y-72063268D02*
X161019194Y-72063268D01*
X143208120Y-69240388D02*
X134677640Y-69240388D01*
X121069911Y-74422000D02*
X120584978Y-74422000D01*
X162484206Y-71399412D02*
X161820350Y-72063268D01*
X147399120Y-69367388D02*
X143335120Y-69367388D01*
X147830976Y-69799244D02*
X147399120Y-69367388D01*
X122066958Y-74764899D02*
X122002311Y-74829546D01*
X128859279Y-74764899D02*
X122066958Y-74764899D01*
X117799400Y-50800000D02*
X117856000Y-50800000D01*
X117856000Y-50800000D02*
X118110000Y-51054000D01*
X117094000Y-50697000D02*
X117696400Y-50697000D01*
X117696400Y-50697000D02*
X117799400Y-50800000D01*
X149151735Y-78740000D02*
X142661423Y-78740000D01*
X142661423Y-78740000D02*
X142176490Y-78740000D01*
X163258498Y-76454000D02*
X151437735Y-76454000D01*
X164630098Y-75082400D02*
X163258498Y-76454000D01*
X151437735Y-76454000D02*
X149151735Y-78740000D01*
X142189200Y-82212200D02*
X142189200Y-80848220D01*
X142189200Y-80848220D02*
X142176490Y-80835510D01*
X140695000Y-80264000D02*
X139649200Y-81309800D01*
X148920933Y-80264000D02*
X140695000Y-80264000D01*
X165722299Y-76530199D02*
X165722299Y-78371701D01*
X151765744Y-77419189D02*
X148920933Y-80264000D01*
X165023801Y-79070199D02*
X156463266Y-79070199D01*
X154812256Y-77419189D02*
X151765744Y-77419189D01*
X156463266Y-79070199D02*
X154812256Y-77419189D01*
X165722299Y-78371701D02*
X165023801Y-79070199D01*
X167170098Y-75082400D02*
X165722299Y-76530199D01*
X139649200Y-81309800D02*
X139649200Y-82212200D01*
X132700990Y-79248000D02*
X131905966Y-78452976D01*
X135128000Y-79248000D02*
X132700990Y-79248000D01*
X131905966Y-78452976D02*
X131563067Y-78110077D01*
X155015444Y-77114378D02*
X155523466Y-77622400D01*
X142017221Y-79857622D02*
X148896244Y-79857622D01*
X151639488Y-77114378D02*
X155015444Y-77114378D01*
X155523466Y-77622400D02*
X159187345Y-77622400D01*
X159631358Y-78066413D02*
X160692512Y-78066413D01*
X135128000Y-79248000D02*
X141407599Y-79248000D01*
X163408784Y-77622400D02*
X164630098Y-77622400D01*
X161136525Y-77622400D02*
X163408784Y-77622400D01*
X159187345Y-77622400D02*
X159631358Y-78066413D01*
X148896244Y-79857622D02*
X151639488Y-77114378D01*
X160692512Y-78066413D02*
X161136525Y-77622400D01*
X141407599Y-79248000D02*
X142017221Y-79857622D01*
X127170176Y-44450000D02*
X127481770Y-44761594D01*
X124856400Y-44450000D02*
X127170176Y-44450000D01*
X124046400Y-45260000D02*
X124856400Y-44450000D01*
X127481770Y-44761594D02*
X127965101Y-44761594D01*
X127965101Y-44761594D02*
X128308000Y-44418695D01*
X123444000Y-45260000D02*
X124046400Y-45260000D01*
X134874000Y-79248000D02*
X135128000Y-79248000D01*
X142981519Y-84575493D02*
X142600641Y-84575493D01*
X143547088Y-84009924D02*
X142981519Y-84575493D01*
X146995033Y-84009924D02*
X143547088Y-84009924D01*
X147427422Y-84442313D02*
X146995033Y-84009924D01*
X123672578Y-85038418D02*
X123329679Y-85381317D01*
X128982678Y-84632811D02*
X124078185Y-84632811D01*
X124078185Y-84632811D02*
X123672578Y-85038418D01*
X132078512Y-85191622D02*
X129541489Y-85191622D01*
X148495268Y-84429622D02*
X148482577Y-84442313D01*
X151382512Y-84429622D02*
X148495268Y-84429622D01*
X151687323Y-84124811D02*
X151382512Y-84429622D01*
X159221662Y-84124811D02*
X151687323Y-84124811D01*
X162792918Y-81254601D02*
X159846507Y-84201012D01*
X165154355Y-81254601D02*
X162792918Y-81254601D01*
X165722299Y-80686657D02*
X165154355Y-81254601D01*
X165722299Y-79070199D02*
X165722299Y-80686657D01*
X132319821Y-84950313D02*
X132078512Y-85191622D01*
X142225821Y-84950313D02*
X132319821Y-84950313D01*
X142600641Y-84575493D02*
X142225821Y-84950313D01*
X159297863Y-84201012D02*
X159221662Y-84124811D01*
X159846507Y-84201012D02*
X159297863Y-84201012D01*
X129541489Y-85191622D02*
X128982678Y-84632811D01*
X167170098Y-77622400D02*
X165722299Y-79070199D01*
X148482577Y-84442313D02*
X147427422Y-84442313D01*
X120181997Y-50697000D02*
X121055000Y-50697000D01*
X121055000Y-50697000D02*
X121158000Y-50800000D01*
X148082000Y-87376000D02*
X146235400Y-87376000D01*
X146235400Y-87376000D02*
X145999200Y-87612200D01*
X151130000Y-83820000D02*
X148336000Y-83820000D01*
X148336000Y-83820000D02*
X148082000Y-83566000D01*
X151892000Y-83058000D02*
X151130000Y-83820000D01*
X160513184Y-83058000D02*
X151892000Y-83058000D01*
X164630098Y-80162400D02*
X163408784Y-80162400D01*
X163408784Y-80162400D02*
X160513184Y-83058000D01*
X162052000Y-79756000D02*
X156718000Y-79756000D01*
X156718000Y-79756000D02*
X154686000Y-77724000D01*
X154686000Y-77724000D02*
X151892000Y-77724000D01*
X151892000Y-77724000D02*
X148844000Y-80772000D01*
X148844000Y-80772000D02*
X145719400Y-80772000D01*
X145719400Y-80772000D02*
X144729200Y-81762200D01*
X144729200Y-81762200D02*
X144729200Y-82212200D01*
X128730166Y-85242433D02*
X125704880Y-85242433D01*
X129288977Y-85801244D02*
X128730166Y-85242433D01*
X132331024Y-85801244D02*
X129288977Y-85801244D01*
X122612327Y-86257630D02*
X122430240Y-86075543D01*
X125704880Y-85242433D02*
X124689683Y-86257630D01*
X132572333Y-85559935D02*
X132331024Y-85801244D01*
X142478332Y-85559935D02*
X132572333Y-85559935D01*
X142853152Y-85185115D02*
X142478332Y-85559935D01*
X143234031Y-85185115D02*
X142853152Y-85185115D01*
X143799080Y-84620065D02*
X143234031Y-85185115D01*
X146743040Y-84620065D02*
X143799080Y-84620065D01*
X148747780Y-85039244D02*
X148735089Y-85051935D01*
X147174910Y-85051935D02*
X146743040Y-84620065D01*
X162521864Y-84810634D02*
X159045351Y-84810634D01*
X159045351Y-84810634D02*
X158969150Y-84734433D01*
X158969150Y-84734433D02*
X151939835Y-84734433D01*
X164630098Y-82702400D02*
X162521864Y-84810634D01*
X151939835Y-84734433D02*
X151635024Y-85039244D01*
X148735089Y-85051935D02*
X147174910Y-85051935D01*
X151635024Y-85039244D02*
X148747780Y-85039244D01*
X124689683Y-86257630D02*
X122612327Y-86257630D01*
X122430240Y-86075543D02*
X122087341Y-85732644D01*
X118508149Y-56134000D02*
X118681510Y-56307361D01*
X117094000Y-56134000D02*
X118508149Y-56134000D01*
X121042671Y-56750005D02*
X121418841Y-56750005D01*
X120226666Y-56134000D02*
X120426666Y-56134000D01*
X120426666Y-56134000D02*
X121042671Y-56750005D01*
X128856422Y-84937622D02*
X125578624Y-84937622D01*
X142726897Y-84880304D02*
X142352077Y-85255124D01*
X148608833Y-84747124D02*
X147301166Y-84747124D01*
X147301166Y-84747124D02*
X146869296Y-84315254D01*
X122758177Y-85177539D02*
X122480148Y-84899510D01*
X122480148Y-84899510D02*
X121995215Y-84899510D01*
X122758177Y-85655639D02*
X122758177Y-85177539D01*
X124563427Y-85952819D02*
X123055357Y-85952819D01*
X123055357Y-85952819D02*
X122758177Y-85655639D01*
X125578624Y-84937622D02*
X124563427Y-85952819D01*
X132204768Y-85496433D02*
X129415233Y-85496433D01*
X129415233Y-85496433D02*
X128856422Y-84937622D01*
X143107775Y-84880304D02*
X142726897Y-84880304D01*
X146869296Y-84315254D02*
X143672825Y-84315254D01*
X143672825Y-84315254D02*
X143107775Y-84880304D01*
X151508768Y-84734433D02*
X148621524Y-84734433D01*
X151813579Y-84429622D02*
X151508768Y-84734433D01*
X159095406Y-84429622D02*
X151813579Y-84429622D01*
X159972763Y-84505823D02*
X159171607Y-84505823D01*
X159171607Y-84505823D02*
X159095406Y-84429622D01*
X162868387Y-81610199D02*
X159972763Y-84505823D01*
X166077897Y-81610199D02*
X162868387Y-81610199D01*
X167170098Y-82702400D02*
X166077897Y-81610199D01*
X148621524Y-84734433D02*
X148608833Y-84747124D01*
X132446076Y-85255124D02*
X132204768Y-85496433D01*
X142352077Y-85255124D02*
X132446076Y-85255124D01*
X129162721Y-86106055D02*
X128603910Y-85547244D01*
X128603910Y-85547244D02*
X126395915Y-85547244D01*
X126395915Y-85547244D02*
X126210463Y-85732696D01*
X126210463Y-85732696D02*
X125867564Y-86075595D01*
X132698588Y-85864746D02*
X132457280Y-86106055D01*
X132457280Y-86106055D02*
X129162721Y-86106055D01*
X142604589Y-85864746D02*
X132698588Y-85864746D01*
X148874036Y-85344055D02*
X148861345Y-85356746D01*
X151761280Y-85344055D02*
X148874036Y-85344055D01*
X151862935Y-85242400D02*
X151761280Y-85344055D01*
X148861345Y-85356746D02*
X143493467Y-85356746D01*
X142979409Y-85489926D02*
X142604589Y-85864746D01*
X143360287Y-85489926D02*
X142979409Y-85489926D01*
X143493467Y-85356746D02*
X143360287Y-85489926D01*
X164630098Y-85242400D02*
X151862935Y-85242400D01*
X123981899Y-50697000D02*
X124260694Y-50975795D01*
X123359332Y-50697000D02*
X123981899Y-50697000D01*
X127963096Y-86461653D02*
X127620197Y-86118754D01*
X159575501Y-89133679D02*
X156243011Y-85801189D01*
X142730844Y-86169557D02*
X132824845Y-86169557D01*
X132824845Y-86169557D02*
X132532749Y-86461653D01*
X132532749Y-86461653D02*
X127963096Y-86461653D01*
X159575501Y-89471501D02*
X159575501Y-89133679D01*
X143099212Y-85801189D02*
X142730844Y-86169557D01*
X167170098Y-92862400D02*
X165747698Y-91440000D01*
X161544000Y-91440000D02*
X159575501Y-89471501D01*
X156243011Y-85801189D02*
X143099212Y-85801189D01*
X165747698Y-91440000D02*
X161544000Y-91440000D01*
X128294000Y-62484000D02*
X128294000Y-62684000D01*
X128294000Y-62684000D02*
X129006384Y-63396384D01*
X129006384Y-63396384D02*
X129366419Y-63396384D01*
X128294000Y-62484000D02*
X128524000Y-62484000D01*
X161173388Y-70104000D02*
X161658321Y-70104000D01*
X160919388Y-70358000D02*
X161173388Y-70104000D01*
X150698933Y-70358000D02*
X160919388Y-70358000D01*
X149225744Y-68884811D02*
X150698933Y-70358000D01*
X148209744Y-68884811D02*
X149225744Y-68884811D01*
X138958322Y-68135502D02*
X138971013Y-68122811D01*
X138409678Y-68135502D02*
X138958322Y-68135502D01*
X138396987Y-68122811D02*
X138409678Y-68135502D01*
X134487484Y-67930301D02*
X134679994Y-68122811D01*
X147447744Y-68122811D02*
X148209744Y-68884811D01*
X138971013Y-68122811D02*
X147447744Y-68122811D01*
X134679994Y-68122811D02*
X138396987Y-68122811D01*
X166031277Y-51712723D02*
X161764029Y-51712723D01*
X161764029Y-51712723D02*
X161717423Y-51666117D01*
X161717423Y-51666117D02*
X161374524Y-51323218D01*
X167132000Y-50812000D02*
X166932000Y-50812000D01*
X166932000Y-50812000D02*
X166031277Y-51712723D01*
X117233699Y-74218801D02*
X116370100Y-75082400D01*
X117721499Y-73731001D02*
X117233699Y-74218801D01*
X119625089Y-73731001D02*
X117721499Y-73731001D01*
X121667141Y-71688949D02*
X119625089Y-73731001D01*
X134487484Y-67930301D02*
X133738174Y-68679611D01*
X130434986Y-71688949D02*
X121667141Y-71688949D01*
X133444324Y-68679611D02*
X130434986Y-71688949D01*
X133738174Y-68679611D02*
X133444324Y-68679611D01*
X134478300Y-68508579D02*
X143338445Y-68508579D01*
X143338445Y-68508579D02*
X143587632Y-68757766D01*
X150572677Y-70662811D02*
X160895628Y-70662811D01*
X161076873Y-70844056D02*
X161419772Y-71186955D01*
X143587632Y-68757766D02*
X147651632Y-68757766D01*
X149099489Y-69189622D02*
X150572677Y-70662811D01*
X147651632Y-68757766D02*
X148083488Y-69189622D01*
X160895628Y-70662811D02*
X161076873Y-70844056D01*
X148083488Y-69189622D02*
X149099489Y-69189622D01*
X166116000Y-60198000D02*
X161716551Y-60198000D01*
X161716551Y-60198000D02*
X161607510Y-60307041D01*
X167132000Y-55529000D02*
X166213000Y-55529000D01*
X133611008Y-69082022D02*
X133904858Y-69082022D01*
X133904858Y-69082022D02*
X134478300Y-68508579D01*
X130516953Y-72176077D02*
X133611008Y-69082022D01*
X121816423Y-72176077D02*
X130516953Y-72176077D01*
X118910100Y-75082400D02*
X121816423Y-72176077D01*
X159562780Y-77152013D02*
X159905679Y-77494912D01*
X155446511Y-77114378D02*
X159525145Y-77114378D01*
X155141700Y-76809567D02*
X155446511Y-77114378D01*
X151513232Y-76809567D02*
X155141700Y-76809567D01*
X148769988Y-79552811D02*
X151513232Y-76809567D01*
X142143477Y-79552811D02*
X148769988Y-79552811D01*
X141330666Y-78740000D02*
X142143477Y-79552811D01*
X133038814Y-78740000D02*
X141330666Y-78740000D01*
X131260814Y-76962000D02*
X133038814Y-78740000D01*
X119866158Y-76962000D02*
X131260814Y-76962000D01*
X119358158Y-76454000D02*
X119866158Y-76962000D01*
X117538500Y-76454000D02*
X119358158Y-76454000D01*
X116370100Y-77622400D02*
X117538500Y-76454000D01*
X159525145Y-77114378D02*
X159562780Y-77152013D01*
X162814000Y-50812000D02*
X162614000Y-50812000D01*
X162614000Y-50812000D02*
X162211600Y-50409600D01*
X162211600Y-50409600D02*
X160942400Y-50409600D01*
X160942400Y-50409600D02*
X160882899Y-50469101D01*
X160882899Y-50469101D02*
X160540000Y-50812000D01*
X124622364Y-77622400D02*
X124711254Y-77533510D01*
X118910100Y-77622400D02*
X124622364Y-77622400D01*
X123359332Y-56134000D02*
X123952000Y-56134000D01*
X123952000Y-56134000D02*
X124206000Y-56388000D01*
X117233699Y-81025999D02*
X116370100Y-80162400D01*
X117817899Y-81610199D02*
X117233699Y-81025999D01*
X120294378Y-81940378D02*
X119964199Y-81610199D01*
X128229403Y-81991220D02*
X128229372Y-81991189D01*
X130808512Y-83718378D02*
X129081354Y-81991220D01*
X128229372Y-81991189D02*
X123493323Y-81991189D01*
X135405902Y-83184988D02*
X134872512Y-83718378D01*
X136111335Y-83184988D02*
X135405902Y-83184988D01*
X129081354Y-81991220D02*
X128229403Y-81991220D01*
X136403448Y-83477101D02*
X136111335Y-83184988D01*
X119964199Y-81610199D02*
X117817899Y-81610199D01*
X123493323Y-81991189D02*
X123442512Y-81940378D01*
X123442512Y-81940378D02*
X120294378Y-81940378D01*
X141135101Y-83477101D02*
X136403448Y-83477101D01*
X134872512Y-83718378D02*
X130808512Y-83718378D01*
X143459200Y-87612200D02*
X143459200Y-88514600D01*
X142311800Y-89662000D02*
X141846321Y-89662000D01*
X143459200Y-88514600D02*
X142311800Y-89662000D01*
X159087252Y-83629510D02*
X159572185Y-83629510D01*
X151751556Y-83629510D02*
X159087252Y-83629510D01*
X151256256Y-84124811D02*
X151751556Y-83629510D01*
X148369012Y-84124811D02*
X151256256Y-84124811D01*
X148356321Y-84137502D02*
X148369012Y-84124811D01*
X147553678Y-84137502D02*
X148356321Y-84137502D01*
X147119054Y-83702878D02*
X147553678Y-84137502D01*
X143423067Y-83702878D02*
X147119054Y-83702878D01*
X142855263Y-84270682D02*
X143423067Y-83702878D01*
X142474385Y-84270682D02*
X142855263Y-84270682D01*
X142099565Y-84645502D02*
X142474385Y-84270682D01*
X131952256Y-84886811D02*
X132193565Y-84645502D01*
X130175744Y-84886811D02*
X131952256Y-84886811D01*
X129616933Y-84328000D02*
X130175744Y-84886811D01*
X120904000Y-84328000D02*
X129616933Y-84328000D01*
X132193565Y-84645502D02*
X142099565Y-84645502D01*
X119773699Y-81025999D02*
X120139072Y-81025999D01*
X118910100Y-80162400D02*
X119773699Y-81025999D01*
X120481941Y-81368868D02*
X120613302Y-81368868D01*
X120613302Y-81368868D02*
X121098235Y-81368868D01*
X120139072Y-81025999D02*
X120481941Y-81368868D01*
X160638762Y-55529000D02*
X160381155Y-55271393D01*
X162814000Y-55529000D02*
X160638762Y-55529000D01*
X145999200Y-110015400D02*
X145999200Y-109565400D01*
X144673701Y-111340899D02*
X145999200Y-110015400D01*
X140804899Y-111340899D02*
X144673701Y-111340899D01*
X140462000Y-110998000D02*
X140804899Y-111340899D01*
X139192000Y-84328000D02*
X139446000Y-84328000D01*
X139446000Y-84328000D02*
X139446000Y-84074000D01*
X132080001Y-84328000D02*
X139192000Y-84328000D01*
X131826001Y-84582000D02*
X132080001Y-84328000D01*
X130302000Y-84582000D02*
X131826001Y-84582000D01*
X130048000Y-84328000D02*
X130302000Y-84582000D01*
X129032000Y-83312000D02*
X130048000Y-84328000D01*
X128524000Y-82804000D02*
X129032000Y-83312000D01*
X128270000Y-82804000D02*
X128524000Y-82804000D01*
X120650000Y-82804000D02*
X128270000Y-82804000D01*
X119659399Y-83794601D02*
X120650000Y-82804000D01*
X117233700Y-83566000D02*
X117462301Y-83794601D01*
X117462301Y-83794601D02*
X119659399Y-83794601D01*
X116370100Y-82702400D02*
X117233700Y-83566000D01*
X137466340Y-92367124D02*
X137439389Y-92340173D01*
X142707557Y-92078669D02*
X142576888Y-91948000D01*
X140226834Y-92367124D02*
X137466340Y-92367124D01*
X142576888Y-91948000D02*
X140645958Y-91948000D01*
X140645958Y-91948000D02*
X140226834Y-92367124D01*
X137439389Y-92340173D02*
X137096490Y-91997274D01*
X143192490Y-92078669D02*
X142707557Y-92078669D01*
X143700490Y-102686690D02*
X143700490Y-102668987D01*
X144729200Y-103715400D02*
X143700490Y-102686690D01*
X144729200Y-104165400D02*
X144729200Y-103715400D01*
X135352080Y-83756490D02*
X135837013Y-83756490D01*
X130682256Y-84023189D02*
X135085381Y-84023189D01*
X135085381Y-84023189D02*
X135352080Y-83756490D01*
X120334625Y-82499189D02*
X129158256Y-82499189D01*
X129158256Y-82499189D02*
X130682256Y-84023189D01*
X120131414Y-82702400D02*
X120334625Y-82499189D01*
X118910100Y-82702400D02*
X120131414Y-82702400D01*
X138988811Y-91384145D02*
X139362168Y-91757502D01*
X139362168Y-91757502D02*
X139974322Y-91757502D01*
X141361388Y-90932000D02*
X141846321Y-90932000D01*
X140799824Y-90932000D02*
X141361388Y-90932000D01*
X139974322Y-91757502D02*
X140799824Y-90932000D01*
X138988811Y-90711013D02*
X138988811Y-91384145D01*
X139255502Y-90444322D02*
X138988811Y-90711013D01*
X138409678Y-89598498D02*
X138958322Y-89598498D01*
X138958322Y-89598498D02*
X139255502Y-89895678D01*
X137888987Y-90119189D02*
X138409678Y-89598498D01*
X133477745Y-90119189D02*
X137888987Y-90119189D01*
X128550122Y-92405189D02*
X131191745Y-92405189D01*
X128042122Y-91897189D02*
X128550122Y-92405189D01*
X125602255Y-91897189D02*
X128042122Y-91897189D01*
X117487700Y-88900000D02*
X122605066Y-88900000D01*
X116370100Y-87782400D02*
X117487700Y-88900000D01*
X131191745Y-92405189D02*
X133477745Y-90119189D01*
X122605066Y-88900000D02*
X125602255Y-91897189D01*
X139255502Y-89895678D02*
X139255502Y-90444322D01*
X141478000Y-102108000D02*
X142189200Y-102819200D01*
X142189200Y-102819200D02*
X142189200Y-104165400D01*
X139649200Y-102715946D02*
X139382521Y-102449267D01*
X139649200Y-104165400D02*
X139649200Y-102715946D01*
X118910100Y-87782400D02*
X124358400Y-87782400D01*
X133351489Y-89814378D02*
X137762731Y-89814378D01*
X131065488Y-92100378D02*
X133351489Y-89814378D01*
X137762731Y-89814378D02*
X138283422Y-89293687D01*
X128676378Y-92100378D02*
X131065488Y-92100378D01*
X138283422Y-89293687D02*
X139084578Y-89293687D01*
X139084578Y-89293687D02*
X139560313Y-89769422D01*
X139560313Y-89769422D02*
X139560313Y-90624890D01*
X139560313Y-90624890D02*
X139636490Y-90701067D01*
X139636490Y-90701067D02*
X139636490Y-91186000D01*
X124358400Y-87782400D02*
X128676378Y-92100378D01*
X139192000Y-88646000D02*
X139192000Y-88069400D01*
X139192000Y-88069400D02*
X139649200Y-87612200D01*
X138684000Y-90424000D02*
X138684000Y-90170000D01*
X138430000Y-90424000D02*
X138684000Y-90424000D01*
X135128000Y-90424000D02*
X138430000Y-90424000D01*
X133096000Y-92456000D02*
X135128000Y-90424000D01*
X131572000Y-92456000D02*
X133096000Y-92456000D01*
X131317999Y-92710001D02*
X131572000Y-92456000D01*
X130556000Y-93472000D02*
X131317999Y-92710001D01*
X128270000Y-93472000D02*
X130556000Y-93472000D01*
X127508000Y-92710000D02*
X128270000Y-93472000D01*
X125984000Y-92710000D02*
X127508000Y-92710000D01*
X125476000Y-92202000D02*
X125984000Y-92710000D01*
X122504199Y-89230199D02*
X125476000Y-92202000D01*
X117233699Y-89458801D02*
X117462301Y-89230199D01*
X117462301Y-89230199D02*
X122504199Y-89230199D01*
X116370100Y-90322400D02*
X117233699Y-89458801D01*
X120131414Y-90322400D02*
X118910100Y-90322400D01*
X123165333Y-90322400D02*
X120131414Y-90322400D01*
X135706105Y-93332301D02*
X134047746Y-93332301D01*
X125857744Y-93014811D02*
X123165333Y-90322400D01*
X127381745Y-93014811D02*
X125857744Y-93014811D01*
X131444256Y-93014811D02*
X130682256Y-93776811D01*
X128143744Y-93776811D02*
X127381745Y-93014811D01*
X133730256Y-93014811D02*
X131444256Y-93014811D01*
X130682256Y-93776811D02*
X128143744Y-93776811D01*
X142120643Y-91503502D02*
X140659389Y-91503502D01*
X142387334Y-91236811D02*
X142120643Y-91503502D01*
X136194801Y-91941395D02*
X136194801Y-92843605D01*
X136848574Y-91287622D02*
X136194801Y-91941395D01*
X140100578Y-92062313D02*
X139235912Y-92062313D01*
X139235912Y-92062313D02*
X138461221Y-91287622D01*
X138461221Y-91287622D02*
X136848574Y-91287622D01*
X136194801Y-92843605D02*
X135706105Y-93332301D01*
X151368060Y-91236811D02*
X142387334Y-91236811D01*
X140659389Y-91503502D02*
X140100578Y-92062313D01*
X152587249Y-92456000D02*
X151368060Y-91236811D01*
X158496000Y-92456000D02*
X152587249Y-92456000D01*
X134047746Y-93332301D02*
X133730256Y-93014811D01*
X159339886Y-50812000D02*
X158254000Y-50812000D01*
X158254000Y-50812000D02*
X158242000Y-50800000D01*
X157581591Y-90114039D02*
X157924490Y-90456938D01*
X132646367Y-86779101D02*
X132951100Y-86474368D01*
X153802153Y-86334601D02*
X157581591Y-90114039D01*
X144698658Y-86474368D02*
X144838425Y-86334601D01*
X121158000Y-87122000D02*
X121500899Y-86779101D01*
X121500899Y-86779101D02*
X132646367Y-86779101D01*
X144838425Y-86334601D02*
X153802153Y-86334601D01*
X132951100Y-86474368D02*
X144698658Y-86474368D01*
X158093448Y-55529000D02*
X157924490Y-55697958D01*
X159339886Y-55529000D02*
X158093448Y-55529000D01*
X121158000Y-91440000D02*
X117792500Y-91440000D01*
X117792500Y-91440000D02*
X116370100Y-92862400D01*
X125274267Y-92862400D02*
X125731488Y-93319622D01*
X118910100Y-92862400D02*
X125274267Y-92862400D01*
X125731488Y-93319622D02*
X127255489Y-93319622D01*
X127255489Y-93319622D02*
X128017488Y-94081622D01*
X128017488Y-94081622D02*
X130808512Y-94081622D01*
X130808512Y-94081622D02*
X131303813Y-93586321D01*
X131303813Y-93586321D02*
X131744676Y-93586321D01*
X132588000Y-106172000D02*
X140515800Y-106172000D01*
X140515800Y-106172000D02*
X143459200Y-109115400D01*
X143459200Y-109115400D02*
X143459200Y-109565400D01*
X132080000Y-105664000D02*
X132588000Y-106172000D01*
X116370100Y-95402400D02*
X117513088Y-96545388D01*
X130867783Y-94776724D02*
X131352716Y-94776724D01*
X130833059Y-94742000D02*
X130867783Y-94776724D01*
X127172023Y-94742000D02*
X130833059Y-94742000D01*
X117513088Y-96545388D02*
X125368635Y-96545388D01*
X125368635Y-96545388D02*
X127172023Y-94742000D01*
X139649200Y-109115400D02*
X139649200Y-109565400D01*
X137302699Y-106768899D02*
X139649200Y-109115400D01*
X131660899Y-106768899D02*
X137302699Y-106768899D01*
X131318000Y-106426000D02*
X131660899Y-106768899D01*
X134264433Y-83413567D02*
X135465800Y-82212200D01*
X132725633Y-83413567D02*
X134264433Y-83413567D01*
X128355661Y-81686411D02*
X130998477Y-81686411D01*
X130998477Y-81686411D02*
X132725633Y-83413567D01*
X128101661Y-81432411D02*
X128355661Y-81686411D01*
X127187249Y-80772000D02*
X127847660Y-81432411D01*
X123698000Y-80772000D02*
X127187249Y-80772000D01*
X136656800Y-82212200D02*
X137109200Y-82212200D01*
X127847660Y-81432411D02*
X128101661Y-81432411D01*
X135465800Y-82212200D02*
X136656800Y-82212200D01*
X122315889Y-62058111D02*
X122593185Y-62058111D01*
X121866000Y-62508000D02*
X122315889Y-62058111D01*
X121666000Y-62508000D02*
X121866000Y-62508000D01*
X126491998Y-56134000D02*
X126691998Y-56134000D01*
X127424445Y-55401553D02*
X127444490Y-55401553D01*
X126691998Y-56134000D02*
X127424445Y-55401553D01*
X126492000Y-45260000D02*
X126492000Y-45709889D01*
X126557146Y-50849639D02*
X127042079Y-50849639D01*
X126491998Y-50784491D02*
X126557146Y-50849639D01*
X126491998Y-50697000D02*
X126491998Y-50784491D01*
X123124854Y-55468375D02*
X122639921Y-55468375D01*
X125889598Y-56134000D02*
X125223973Y-55468375D01*
X125223973Y-55468375D02*
X123124854Y-55468375D01*
X126491998Y-56134000D02*
X125889598Y-56134000D01*
X126238000Y-49784000D02*
X126238000Y-50443002D01*
X126238000Y-50443002D02*
X126491998Y-50697000D01*
X117094000Y-54335390D02*
X117073390Y-54356000D01*
X117094000Y-53697000D02*
X117094000Y-54335390D01*
X125410999Y-47238601D02*
X125889600Y-46760000D01*
X117696400Y-48260000D02*
X118717799Y-47238601D01*
X118717799Y-47238601D02*
X125410999Y-47238601D01*
X117094000Y-48260000D02*
X117696400Y-48260000D01*
X125889600Y-46760000D02*
X126492000Y-46760000D01*
X117094000Y-48260000D02*
X117094000Y-49022000D01*
X117094000Y-59134000D02*
X117094000Y-58420000D01*
X120181997Y-53697000D02*
X119481997Y-53697000D01*
X119481997Y-53697000D02*
X117094000Y-53697000D01*
X120226666Y-59134000D02*
X122322405Y-59134000D01*
X122322405Y-59134000D02*
X122447607Y-59008798D01*
X122618874Y-51562000D02*
X122194610Y-51562000D01*
X125791998Y-51697000D02*
X124138714Y-51697000D01*
X124138714Y-51697000D02*
X124003714Y-51562000D01*
X124003714Y-51562000D02*
X122618874Y-51562000D01*
X126491998Y-52197000D02*
X126291998Y-52197000D01*
X126291998Y-52197000D02*
X125791998Y-51697000D01*
X120396000Y-48260000D02*
X122174000Y-48260000D01*
X123359332Y-58504668D02*
X123444000Y-58420000D01*
X123359332Y-58752003D02*
X123359332Y-58504668D01*
X123359332Y-59134000D02*
X123359332Y-58752003D01*
X125730000Y-57912000D02*
X125730000Y-57793598D01*
X125730000Y-57793598D02*
X125889598Y-57634000D01*
X125889598Y-57634000D02*
X126491998Y-57634000D01*
X124508000Y-59134000D02*
X125730000Y-57912000D01*
X123359332Y-59134000D02*
X124508000Y-59134000D01*
D23*
X123190000Y-53628475D02*
X123190000Y-53204211D01*
X123258525Y-53697000D02*
X123190000Y-53628475D01*
X123359332Y-53697000D02*
X123258525Y-53697000D01*
D22*
X123444000Y-48260000D02*
X123444000Y-49022000D01*
X154686000Y-50967429D02*
X154686000Y-54971171D01*
X155243829Y-55529000D02*
X155443829Y-55529000D01*
X154686000Y-54971171D02*
X155243829Y-55529000D01*
X155443829Y-50812000D02*
X154841429Y-50812000D01*
X154841429Y-50812000D02*
X154686000Y-50967429D01*
X137109200Y-103715400D02*
X138239510Y-102585090D01*
X138239510Y-102585090D02*
X138239510Y-102362000D01*
X137109200Y-104165400D02*
X137109200Y-103715400D01*
X148246533Y-67818000D02*
X138938000Y-67818000D01*
X138938000Y-67818000D02*
X138684000Y-67564000D01*
X150355605Y-68681622D02*
X149870672Y-68681622D01*
X149603973Y-68414923D02*
X148843455Y-68414923D01*
X149870672Y-68681622D02*
X149603973Y-68414923D01*
X148843455Y-68414923D02*
X148246533Y-67818000D01*
X154638000Y-60246000D02*
X154432000Y-60452000D01*
X155443829Y-60246000D02*
X154638000Y-60246000D01*
D23*
X157410009Y-60246000D02*
X158886009Y-61722000D01*
X155443829Y-60246000D02*
X157410009Y-60246000D01*
X158886009Y-61722000D02*
X159339886Y-61722000D01*
X155443829Y-60246000D02*
X155243829Y-60246000D01*
X155243829Y-60246000D02*
X154668828Y-59670999D01*
X154668828Y-59670999D02*
X154668828Y-56104001D01*
X154668828Y-56104001D02*
X155243829Y-55529000D01*
X158639886Y-53812000D02*
X159339886Y-53812000D01*
X157143829Y-53812000D02*
X158639886Y-53812000D01*
X155643829Y-52312000D02*
X157143829Y-53812000D01*
X155443829Y-52312000D02*
X155643829Y-52312000D01*
D22*
X162814000Y-57774302D02*
X162814000Y-58529000D01*
X162814000Y-53812000D02*
X162814000Y-54610000D01*
D23*
X162114000Y-53812000D02*
X162814000Y-53812000D01*
X162032999Y-53730999D02*
X162114000Y-53812000D01*
X160120887Y-53730999D02*
X162032999Y-53730999D01*
X160039886Y-53812000D02*
X160120887Y-53730999D01*
X159339886Y-53812000D02*
X160039886Y-53812000D01*
X162915000Y-58529000D02*
X162814000Y-58529000D01*
X162814000Y-53812000D02*
X167132000Y-53812000D01*
X155643829Y-57029000D02*
X157143829Y-58529000D01*
X155443829Y-57029000D02*
X155643829Y-57029000D01*
X157143829Y-58529000D02*
X158639886Y-58529000D01*
X158639886Y-58529000D02*
X159339886Y-58529000D01*
X163470311Y-59285312D02*
X163506400Y-59321401D01*
X165639599Y-59321401D02*
X166432000Y-58529000D01*
X163506400Y-59321401D02*
X165639599Y-59321401D01*
X160296198Y-59285312D02*
X163470311Y-59285312D01*
X159339886Y-58529000D02*
X159539886Y-58529000D01*
X159539886Y-58529000D02*
X160296198Y-59285312D01*
X166432000Y-58529000D02*
X167132000Y-58529000D01*
M02*
