M48
;DRILL file {KiCad 4.0.7-e2-6376~58~ubuntu16.04.1} date Fri Jun  1 10:41:50 2018
;FORMAT={-:-/ absolute / inch / decimal}
FMAT,2
INCH,TZ
T1C0.013
T2C0.016
T3C0.036
T4C0.039
T5C0.040
T6C0.066
%
G90
G05
M72
T1
X4.61Y-1.93
X4.6348Y-2.3933
X4.64Y-1.86
X4.64Y-2.07
X4.6407Y-2.3609
X4.65Y-1.8
X4.65Y-2.01
X4.65Y-2.5
X4.67Y-2.27
X4.6725Y-2.2168
X4.7474Y-2.93
X4.749Y-3.1762
X4.7505Y-2.9633
X4.76Y-3.32
X4.7676Y-3.2035
X4.77Y-2.
X4.77Y-3.43
X4.77Y-3.6
X4.7803Y-2.2343
X4.7924Y-2.9235
X4.7999Y-2.2774
X4.803Y-3.3425
X4.8066Y-3.3753
X4.81Y-1.9
X4.819Y-2.5575
X4.8265Y-2.4432
X4.8283Y-2.1838
X4.8454Y-2.5962
X4.8555Y-3.3615
X4.8575Y-2.37
X4.86Y-1.93
X4.86Y-2.3
X4.87Y-3.18
X4.87Y-4.65
X4.89Y-2.22
X4.89Y-2.75
X4.8922Y-2.0069
X4.8965Y-3.2055
X4.9Y-1.81
X4.9Y-2.42
X4.9Y-2.55
X4.9099Y-3.0525
X4.9125Y-3.7521
X4.92Y-4.57
X4.93Y-3.95
X4.9395Y-3.2945
X4.94Y-2.07
X4.9501Y-2.4972
X4.9554Y-3.3888
X4.9575Y-2.1493
X4.97Y-1.96
X4.977Y-2.5412
X4.98Y-1.7996
X4.98Y-2.3
X4.99Y-3.6965
X4.9915Y-2.9925
X5.0017Y-2.002
X5.0114Y-2.357
X5.0175Y-2.1812
X5.02Y-1.73
X5.0209Y-2.1212
X5.0244Y-3.3905
X5.03Y-2.25
X5.0323Y-2.3825
X5.036Y-3.2921
X5.0425Y-3.7645
X5.0445Y-2.5123
X5.0486Y-2.3531
X5.0515Y-1.7488
X5.0573Y-2.2795
X5.06Y-2.42
X5.061Y-2.0792
X5.0762Y-3.7525
X5.08Y-2.31
X5.08Y-1.82
X5.0932Y-2.4959
X5.1103Y-2.2969
X5.1132Y-2.3419
X5.17Y-2.88
X5.17Y-4.19
X5.1714Y-3.7314
X5.1796Y-3.0752
X5.1868Y-3.6845
X5.2Y-4.16
X5.2238Y-2.5158
X5.237Y-2.9297
X5.2675Y-2.4896
X5.321Y-2.6048
X5.3479Y-3.2975
X5.3544Y-2.5965
X5.38Y-2.65
X5.39Y-2.55
X5.3975Y-3.6219
X5.42Y-3.5
X5.44Y-3.17
X5.4425Y-4.03
X5.46Y-2.66
X5.46Y-3.55
X5.48Y-3.49
X5.4845Y-3.9259
X5.4875Y-4.0334
X5.49Y-3.31
X5.4975Y-3.59
X5.5169Y-3.5326
X5.52Y-2.79
X5.53Y-4.37
X5.5425Y-4.0501
X5.55Y-3.05
X5.55Y-3.19
X5.56Y-3.29
X5.57Y-4.02
X5.57Y-4.54
X5.5845Y-3.53
X5.5845Y-3.58
X5.5975Y-3.1
X5.5975Y-3.1825
X5.61Y-4.74
X5.6109Y-4.3609
X5.6134Y-3.2952
X5.62Y-3.67
X5.6375Y-3.6251
X5.6575Y-3.98
X5.6575Y-4.0421
X5.68Y-3.8
X5.6815Y-3.803
X5.69Y-4.66
X5.7Y-3.02
X5.74Y-4.03
X5.79Y-2.62
X5.83Y-3.29
X5.83Y-3.44
X5.9195Y-2.704
X6.0799Y-2.5625
X6.08Y-2.38
X6.08Y-2.49
X6.12Y-2.15
X6.12Y-2.33
X6.12Y-2.4603
X6.1575Y-2.4301
X6.1575Y-2.9401
X6.17Y-2.06
X6.18Y-4.68
X6.2055Y-2.2653
X6.2175Y-2.1928
X6.2175Y-3.5613
X6.23Y-2.
X6.23Y-4.61
X6.24Y-3.64
X6.2615Y-2.4
X6.2615Y-2.6097
X6.2824Y-3.2925
X6.2955Y-3.051
X6.3075Y-3.7858
X6.3142Y-2.176
X6.3205Y-2.0005
X6.33Y-3.82
X6.3475Y-2.2579
X6.3533Y-2.0206
X6.3551Y-2.8026
X6.36Y-2.06
X6.3625Y-2.3743
X6.3645Y-2.76
X6.3675Y-2.9243
X6.38Y-3.14
X6.39Y-2.98
X6.41Y-2.15
X6.41Y-2.2746
X6.42Y-2.45
X6.42Y-2.6
X6.4472Y-2.25
X6.53Y-2.06
X6.54Y-2.37
X6.5438Y-2.1862
T2
X4.6092Y-2.14
X4.61Y-2.3
X4.8108Y-2.03
X4.8208Y-2.3232
X4.85Y-2.0947
X4.9108Y-2.2782
X4.9159Y-2.4892
X4.96Y-4.61
X4.98Y-1.93
X5.1167Y-2.4726
X5.5995Y-3.5025
X5.7108Y-4.24
T3
X5.325Y-2.775
X5.325Y-2.855
X5.325Y-2.935
X5.325Y-3.015
X5.325Y-3.6375
X5.325Y-3.7175
X5.325Y-3.7975
X5.325Y-3.8775
X5.325Y-4.5
X5.325Y-4.58
X5.325Y-4.66
X5.325Y-4.74
X5.405Y-2.815
X5.405Y-2.895
X5.405Y-2.975
X5.405Y-3.055
X5.405Y-3.6775
X5.405Y-3.7575
X5.405Y-3.8375
X5.405Y-3.9175
X5.405Y-4.54
X5.405Y-4.62
X5.405Y-4.7
X5.405Y-4.78
X5.745Y-2.78
X5.745Y-2.86
X5.745Y-2.94
X5.745Y-3.02
X5.745Y-3.6375
X5.745Y-3.7175
X5.745Y-3.7975
X5.745Y-3.8775
X5.745Y-4.5
X5.745Y-4.58
X5.745Y-4.66
X5.745Y-4.74
X5.825Y-2.82
X5.825Y-2.9
X5.825Y-2.98
X5.825Y-3.06
X5.825Y-3.6775
X5.825Y-3.7575
X5.825Y-3.8375
X5.825Y-3.9175
X5.825Y-4.54
X5.825Y-4.62
X5.825Y-4.7
X5.825Y-4.78
T4
X5.14Y-1.79
X5.14Y-1.89
X5.14Y-1.99
X5.14Y-2.09
X5.14Y-2.19
X5.23Y-2.35
X5.23Y-2.45
X5.24Y-1.79
X5.24Y-1.89
X5.24Y-1.99
X5.24Y-2.09
X5.24Y-2.19
T5
X4.5815Y-2.456
X4.5815Y-2.556
X4.5815Y-2.656
X4.5815Y-2.756
X4.5815Y-2.856
X4.5815Y-2.956
X4.5815Y-3.056
X4.5815Y-3.156
X4.5815Y-3.256
X4.5815Y-3.356
X4.5815Y-3.456
X4.5815Y-3.556
X4.5815Y-3.656
X4.5815Y-3.756
X4.5815Y-3.856
X4.5815Y-3.956
X4.5815Y-4.056
X4.5815Y-4.156
X4.5815Y-4.256
X4.5815Y-4.356
X4.5815Y-4.456
X4.5815Y-4.556
X4.5815Y-4.656
X4.6815Y-2.456
X4.6815Y-2.556
X4.6815Y-2.656
X4.6815Y-2.756
X4.6815Y-2.856
X4.6815Y-2.956
X4.6815Y-3.056
X4.6815Y-3.156
X4.6815Y-3.256
X4.6815Y-3.356
X4.6815Y-3.456
X4.6815Y-3.556
X4.6815Y-3.656
X4.6815Y-3.756
X4.6815Y-3.856
X4.6815Y-3.956
X4.6815Y-4.056
X4.6815Y-4.156
X4.6815Y-4.256
X4.6815Y-4.356
X4.6815Y-4.456
X4.6815Y-4.556
X4.6815Y-4.656
X6.4815Y-2.456
X6.4815Y-2.556
X6.4815Y-2.656
X6.4815Y-2.756
X6.4815Y-2.856
X6.4815Y-2.956
X6.4815Y-3.056
X6.4815Y-3.156
X6.4815Y-3.256
X6.4815Y-3.356
X6.4815Y-3.456
X6.4815Y-3.556
X6.4815Y-3.656
X6.4815Y-3.756
X6.4815Y-3.856
X6.4815Y-3.956
X6.4815Y-4.056
X6.4815Y-4.156
X6.4815Y-4.256
X6.4815Y-4.356
X6.4815Y-4.456
X6.4815Y-4.556
X6.4815Y-4.656
X6.5815Y-2.456
X6.5815Y-2.556
X6.5815Y-2.656
X6.5815Y-2.756
X6.5815Y-2.856
X6.5815Y-2.956
X6.5815Y-3.056
X6.5815Y-3.156
X6.5815Y-3.256
X6.5815Y-3.356
X6.5815Y-3.456
X6.5815Y-3.556
X6.5815Y-3.656
X6.5815Y-3.756
X6.5815Y-3.856
X6.5815Y-3.956
X6.5815Y-4.056
X6.5815Y-4.156
X6.5815Y-4.256
X6.5815Y-4.356
X6.5815Y-4.456
X6.5815Y-4.556
X6.5815Y-4.656
T6
X5.252Y-2.606
X5.252Y-3.224
X5.252Y-3.4685
X5.252Y-4.0865
X5.252Y-4.331
X5.252Y-4.949
X5.898Y-2.611
X5.898Y-3.229
X5.898Y-3.4685
X5.898Y-4.0865
X5.898Y-4.331
X5.898Y-4.949
T0
M30
