G04 #@! TF.FileFunction,Soldermask,Bot*
%FSLAX46Y46*%
G04 Gerber Fmt 4.6, Leading zero omitted, Abs format (unit mm)*
G04 Created by KiCad (PCBNEW 4.0.7-e2-6376~58~ubuntu16.04.1) date Fri Jun  1 10:41:47 2018*
%MOMM*%
%LPD*%
G01*
G04 APERTURE LIST*
%ADD10C,0.100000*%
%ADD11R,1.700000X1.700000*%
%ADD12O,1.700000X1.700000*%
%ADD13R,1.727200X1.727200*%
%ADD14O,1.727200X1.727200*%
%ADD15C,1.422400*%
%ADD16C,2.514600*%
%ADD17R,0.900000X0.500000*%
%ADD18R,0.500000X0.900000*%
%ADD19R,0.600000X1.500000*%
G04 APERTURE END LIST*
D10*
D11*
X132842000Y-59690000D03*
D12*
X132842000Y-62230000D03*
D13*
X164630098Y-62382400D03*
D14*
X167170098Y-62382400D03*
X164630098Y-64922400D03*
X167170098Y-64922400D03*
X164630098Y-67462400D03*
X167170098Y-67462400D03*
X164630098Y-70002400D03*
X167170098Y-70002400D03*
X164630098Y-72542400D03*
X167170098Y-72542400D03*
X164630098Y-75082400D03*
X167170098Y-75082400D03*
X164630098Y-77622400D03*
X167170098Y-77622400D03*
X164630098Y-80162400D03*
X167170098Y-80162400D03*
X164630098Y-82702400D03*
X167170098Y-82702400D03*
X164630098Y-85242400D03*
X167170098Y-85242400D03*
X164630098Y-87782400D03*
X167170098Y-87782400D03*
X164630098Y-90322400D03*
X167170098Y-90322400D03*
X164630098Y-92862400D03*
X167170098Y-92862400D03*
X164630098Y-95402400D03*
X167170098Y-95402400D03*
X164630098Y-97942400D03*
X167170098Y-97942400D03*
X164630098Y-100482400D03*
X167170098Y-100482400D03*
X164630098Y-103022400D03*
X167170098Y-103022400D03*
X164630098Y-105562400D03*
X167170098Y-105562400D03*
X164630098Y-108102400D03*
X167170098Y-108102400D03*
X164630098Y-110642400D03*
X167170098Y-110642400D03*
X164630098Y-113182400D03*
X167170098Y-113182400D03*
X164630098Y-115722400D03*
X167170098Y-115722400D03*
X164630098Y-118262400D03*
X167170098Y-118262400D03*
D13*
X116370100Y-62382400D03*
D14*
X118910100Y-62382400D03*
X116370100Y-64922400D03*
X118910100Y-64922400D03*
X116370100Y-67462400D03*
X118910100Y-67462400D03*
X116370100Y-70002400D03*
X118910100Y-70002400D03*
X116370100Y-72542400D03*
X118910100Y-72542400D03*
X116370100Y-75082400D03*
X118910100Y-75082400D03*
X116370100Y-77622400D03*
X118910100Y-77622400D03*
X116370100Y-80162400D03*
X118910100Y-80162400D03*
X116370100Y-82702400D03*
X118910100Y-82702400D03*
X116370100Y-85242400D03*
X118910100Y-85242400D03*
X116370100Y-87782400D03*
X118910100Y-87782400D03*
X116370100Y-90322400D03*
X118910100Y-90322400D03*
X116370100Y-92862400D03*
X118910100Y-92862400D03*
X116370100Y-95402400D03*
X118910100Y-95402400D03*
X116370100Y-97942400D03*
X118910100Y-97942400D03*
X116370100Y-100482400D03*
X118910100Y-100482400D03*
X116370100Y-103022400D03*
X118910100Y-103022400D03*
X116370100Y-105562400D03*
X118910100Y-105562400D03*
X116370100Y-108102400D03*
X118910100Y-108102400D03*
X116370100Y-110642400D03*
X118910100Y-110642400D03*
X116370100Y-113182400D03*
X118910100Y-113182400D03*
X116370100Y-115722400D03*
X118910100Y-115722400D03*
X116370100Y-118262400D03*
X118910100Y-118262400D03*
D15*
X135255000Y-74549000D03*
X135255000Y-72517000D03*
X135255000Y-70485000D03*
X137287000Y-71501000D03*
X137287000Y-73533000D03*
X137287000Y-75565000D03*
X137287000Y-77597000D03*
X135255000Y-76581000D03*
D16*
X133400800Y-66192400D03*
X133400800Y-81889600D03*
D15*
X135255000Y-96456500D03*
X135255000Y-94424500D03*
X135255000Y-92392500D03*
X137287000Y-93408500D03*
X137287000Y-95440500D03*
X137287000Y-97472500D03*
X137287000Y-99504500D03*
X135255000Y-98488500D03*
D16*
X133400800Y-88099900D03*
X133400800Y-103797100D03*
D15*
X135255000Y-118364000D03*
X135255000Y-116332000D03*
X135255000Y-114300000D03*
X137287000Y-115316000D03*
X137287000Y-117348000D03*
X137287000Y-119380000D03*
X137287000Y-121412000D03*
X135255000Y-120396000D03*
D16*
X133400800Y-110007400D03*
X133400800Y-125704600D03*
D15*
X147955000Y-73660000D03*
X147955000Y-75692000D03*
X147955000Y-77724000D03*
X145923000Y-76708000D03*
X145923000Y-74676000D03*
X145923000Y-72644000D03*
X145923000Y-70612000D03*
X147955000Y-71628000D03*
D16*
X149809200Y-82016600D03*
X149809200Y-66319400D03*
D15*
X147955000Y-95440500D03*
X147955000Y-97472500D03*
X147955000Y-99504500D03*
X145923000Y-98488500D03*
X145923000Y-96456500D03*
X145923000Y-94424500D03*
X145923000Y-92392500D03*
X147955000Y-93408500D03*
D16*
X149809200Y-103797100D03*
X149809200Y-88099900D03*
D15*
X147955000Y-117348000D03*
X147955000Y-119380000D03*
X147955000Y-121412000D03*
X145923000Y-120396000D03*
X145923000Y-118364000D03*
X145923000Y-116332000D03*
X145923000Y-114300000D03*
X147955000Y-115316000D03*
D16*
X149809200Y-125704600D03*
X149809200Y-110007400D03*
D11*
X133096000Y-55626000D03*
D12*
X130556000Y-55626000D03*
X133096000Y-53086000D03*
X130556000Y-53086000D03*
X133096000Y-50546000D03*
X130556000Y-50546000D03*
X133096000Y-48006000D03*
X130556000Y-48006000D03*
X133096000Y-45466000D03*
X130556000Y-45466000D03*
D17*
X126492000Y-45260000D03*
X126492000Y-46760000D03*
X126492000Y-48260000D03*
X126491998Y-50697000D03*
X126491998Y-52197000D03*
X126491998Y-53697000D03*
X126491998Y-56134000D03*
X126491998Y-57634000D03*
X126491998Y-59134000D03*
X117094000Y-45260000D03*
X117094000Y-46760000D03*
X117094000Y-48260000D03*
X120396000Y-45260000D03*
X120396000Y-46760000D03*
X120396000Y-48260000D03*
X123444000Y-45260000D03*
X123444000Y-46760000D03*
X123444000Y-48260000D03*
X117094000Y-50697000D03*
X117094000Y-52197000D03*
X117094000Y-53697000D03*
X120181997Y-50697000D03*
X120181997Y-52197000D03*
X120181997Y-53697000D03*
X123359332Y-50697000D03*
X123359332Y-52197000D03*
X123359332Y-53697000D03*
X117094000Y-56134000D03*
X117094000Y-57634000D03*
X117094000Y-59134000D03*
X120226666Y-56134000D03*
X120226666Y-57634000D03*
X120226666Y-59134000D03*
X123359332Y-56134000D03*
X123359332Y-57634000D03*
X123359332Y-59134000D03*
X121666000Y-61008000D03*
X121666000Y-62508000D03*
X121666000Y-64008000D03*
X159339886Y-60222000D03*
X159339886Y-61722000D03*
X159339886Y-63222000D03*
X155443829Y-50812000D03*
X155443829Y-52312000D03*
X155443829Y-53812000D03*
X155443829Y-55529000D03*
X155443829Y-57029000D03*
X155443829Y-58529000D03*
X155443829Y-60246000D03*
X155443829Y-61746000D03*
X155443829Y-63246000D03*
X167132000Y-50812000D03*
X167132000Y-52312000D03*
X167132000Y-53812000D03*
X167132000Y-55529000D03*
X167132000Y-57029000D03*
X167132000Y-58529000D03*
X162814000Y-50812000D03*
X162814000Y-52312000D03*
X162814000Y-53812000D03*
X162814000Y-55529000D03*
X162814000Y-57029000D03*
X162814000Y-58529000D03*
X159339886Y-50812000D03*
X159339886Y-52312000D03*
X159339886Y-53812000D03*
X159339886Y-55529000D03*
X159339886Y-57029000D03*
X159339886Y-58529000D03*
D18*
X123976000Y-62484000D03*
X125476000Y-62484000D03*
X128294000Y-62484000D03*
X129794000Y-62484000D03*
D19*
X137109200Y-82212200D03*
X138379200Y-82212200D03*
X139649200Y-82212200D03*
X140919200Y-82212200D03*
X142189200Y-82212200D03*
X143459200Y-82212200D03*
X144729200Y-82212200D03*
X145999200Y-82212200D03*
X145999200Y-87612200D03*
X144729200Y-87612200D03*
X143459200Y-87612200D03*
X142189200Y-87612200D03*
X140919200Y-87612200D03*
X139649200Y-87612200D03*
X138379200Y-87612200D03*
X137109200Y-87612200D03*
X137109200Y-104165400D03*
X138379200Y-104165400D03*
X139649200Y-104165400D03*
X140919200Y-104165400D03*
X142189200Y-104165400D03*
X143459200Y-104165400D03*
X144729200Y-104165400D03*
X145999200Y-104165400D03*
X145999200Y-109565400D03*
X144729200Y-109565400D03*
X143459200Y-109565400D03*
X142189200Y-109565400D03*
X140919200Y-109565400D03*
X139649200Y-109565400D03*
X138379200Y-109565400D03*
X137109200Y-109565400D03*
M02*
